<?xml version="1.0" encoding="UTF-8"?>
<svg width="32px" height="37px" viewBox="0 0 32 37" version="1.1" xmlns="http://www.w3.org/2000/svg" xmlns:xlink="http://www.w3.org/1999/xlink">
    <!-- Generator: sketchtool 54.1 (76490) - https://sketchapp.com -->
    <title>6EA0D4B6-8DD5-4FFA-B55E-76FE9D654594</title>
    <desc>Created with sketchtool.</desc>
    <g id="Page-1" stroke="none" stroke-width="1" fill="none" fill-rule="evenodd">
        <g id="Partner-Opt-1" transform="translate(-1072.000000, -1311.000000)" stroke="#2A2A2A">
            <g id="our-product" transform="translate(98.000000, 913.000000)">
                <g id="context" transform="translate(0.000000, 138.000000)">
                    <g id="data">
                        <g id="3" transform="translate(800.000000, 0.000000)">
                            <g id="Group-7" transform="translate(26.000000, 30.000000)">
                                <g id="feature" transform="translate(0.000000, 230.000000)">
                                    <g id="1">
                                        <g transform="translate(127.000000, 1.000000)" id="Group-5">
                                            <g transform="translate(22.000000, 0.000000)">
                                                <g id="iconfinder_private_detective_investigator_2807052" stroke-linecap="round" stroke-linejoin="round">
                                                    <path d="M17.4303867,7.74033916 L16.2932894,3.02794835 C15.5624699,-0.082198815 14.98118,-0.0560501988 14.2243973,0.0208574957 C13.4334776,0.101354216 12.9666186,0.862227674 12.4997596,1.27701651 C12.0333814,0.861714956 11.5665224,0.101354216 10.7756027,0.0208574957 C10.0183392,-0.0555374809 9.43704925,-0.082198815 8.70622982,3.02794835 L7.5691325,7.74033916 C4.25352016,8.12282676 2,8.87293314 2,9.73583747 C2,10.9776404 6.68734116,11.9861566 12.4737963,12 C18.2847723,11.9923092 23,10.9812294 23,9.73583747 C23,8.87293314 20.745999,8.12282676 17.4303867,7.74033916 Z" id="Path"></path>
                                                    <path d="M18,8.04133685 C16.6148911,8.63236588 14.6837767,9 12.5463173,9 C10.3608252,9 8.39050038,8.61565523 7,8" id="Path"></path>
                                                    <g id="Group" transform="translate(11.000000, 19.000000)">
                                                        <path d="M0.398636364,0.169 L1.09272727,13.699" id="Path"></path>
                                                        <path d="M4.60136364,0.169 L3.90727273,13.699" id="Path"></path>
                                                    </g>
                                                    <g id="Group" transform="translate(0.000000, 11.000000)">
                                                        <g transform="translate(17.169811, 2.500000)" id="Path">
                                                            <path d="M8.63396226,19.1995 L8.63396226,12.128 C8.63396226,9.329 7.17060377,8.1375 5.92358491,7.6295"></path>
                                                            <path d="M1.32207547,0.293 C1.32207547,0.293 3.96181132,2.143 6.11049057,4.503 L1.30196226,7.5965 L3.86222642,10.5655 L0.330641509,19.1995"></path>
                                                        </g>
                                                        <g id="Path">
                                                            <path d="M0.196226415,21.6995 L0.196226415,14.628 C0.196226415,11.856 1.63162264,10.66 2.87030189,10.1445"></path>
                                                            <path d="M8.49954717,21.699 L4.96796226,13.065 L7.52822642,10.096 L2.71969811,7.0025 C4.86837736,4.6425 7.51645283,2.773 7.51645283,2.773 C8.1134717,5.8395 10.1743396,8.623 13,8.623 C16.2377358,8.623 18.6410189,4.6005 18.6410189,0.92 L18.6410189,0.2785"></path>
                                                        </g>
                                                    </g>
                                                </g>
                                                <g id="iconfinder_search_2117071" transform="translate(22.000000, 28.000000) scale(-1, 1) translate(-22.000000, -28.000000) translate(14.000000, 20.000000)">
                                                    <circle id="path4145" stroke-linecap="round" stroke-linejoin="round" cx="5.81818182" cy="5.81818182" r="5.81818182"></circle>
                                                    <polygon id="rect4147" stroke-linecap="round" stroke-linejoin="round" transform="translate(13.044988, 13.068154) rotate(45.000000) translate(-13.044988, -13.068154) " points="10.2238076 12.6375526 15.8661693 12.6375526 15.8661693 13.4987553 10.2238076 13.4987553"></polygon>
                                                    <path d="M10.1818182,10.1818182 L11.6363636,11.6363636" id="path4149"></path>
                                                    <path d="M2.90909091,2.89253306 C3.59382085,2.01527243 4.63974329,1.45454545 5.81175536,1.45454545 C6.99112504,1.45454545 8.04281653,2.02233408 8.72727273,2.90909091" id="circle4160" stroke-linecap="round" stroke-linejoin="round"></path>
                                                </g>
                                            </g>
                                        </g>
                                    </g>
                                </g>
                            </g>
                        </g>
                    </g>
                </g>
            </g>
        </g>
    </g>
</svg>