<?xml version="1.0" encoding="UTF-8"?>
<svg width="22px" height="28px" viewBox="0 0 22 28" version="1.1" xmlns="http://www.w3.org/2000/svg" xmlns:xlink="http://www.w3.org/1999/xlink">
    <!-- Generator: sketchtool 54.1 (76490) - https://sketchapp.com -->
    <title>3AB075F9-55A8-4931-A121-686FF2E2DCD0</title>
    <desc>Created with sketchtool.</desc>
    <g id="Page-1" stroke="none" stroke-width="1" fill="none" fill-rule="evenodd">
        <g id="Partner-Opt-1" transform="translate(-395.000000, -1315.000000)">
            <g id="our-product" transform="translate(98.000000, 913.000000)">
                <g id="context" transform="translate(0.000000, 138.000000)">
                    <g id="data">
                        <g id="1">
                            <g id="Group-6" transform="translate(25.000000, 30.000000)">
                                <g id="feature" transform="translate(0.000000, 223.000000)">
                                    <g id="1-copy-2" transform="translate(246.000000, 12.000000)">
                                        <g id="iconfinder_lock_172497" transform="translate(27.000000, 0.000000)">
                                            <path d="M1.8,26.2 C1.1376,26.2 0.6,25.6624 0.6,25 L0.6,11.8 C0.6,11.1376 1.1376,10.6 1.8,10.6 L18.6,10.6 C19.2624,10.6 19.8,11.1376 19.8,11.8 L19.8,25 C19.8,25.6624 19.2624,26.2 18.6,26.2 L1.8,26.2 Z" id="Path" stroke="#000000" stroke-width="1.5" stroke-linecap="round"></path>
                                            <path d="M16.2,10.6 C16.2,9.973 16.2,7.027 16.2,6.4 C16.2,3.0862 13.5138,0.4 10.2,0.4 C6.8862,0.4 4.2,3.0862 4.2,6.4 C4.2,7.027 4.2,9.973 4.2,10.6" id="Path" stroke="#000000" stroke-width="1.5" stroke-linecap="round"></path>
                                            <path d="M12,17.2 C12,16.2058 11.1942,15.4 10.2,15.4 C9.2058,15.4 8.4,16.2058 8.4,17.2 C8.4,17.731 8.6346,18.2038 9,18.5332 L9,20.2 C9,20.8624 9.5376,21.4 10.2,21.4 C10.8624,21.4 11.4,20.8624 11.4,20.2 L11.4,18.5332 C11.7654,18.2038 12,17.731 12,17.2 Z" id="Path" fill="#000000"></path>
                                        </g>
                                    </g>
                                </g>
                            </g>
                        </g>
                    </g>
                </g>
            </g>
        </g>
    </g>
</svg>