<?xml version="1.0" encoding="UTF-8"?>
<svg width="64px" height="64px" viewBox="0 0 64 64" version="1.1" xmlns="http://www.w3.org/2000/svg" xmlns:xlink="http://www.w3.org/1999/xlink">
    <!-- Generator: sketchtool 54.1 (76490) - https://sketchapp.com -->
    <title>A9079E9A-CC13-42EA-8AAE-537CF04E4E14</title>
    <desc>Created with sketchtool.</desc>
    <defs>
        <linearGradient x1="86.6983366%" y1="104.251614%" x2="15.3615869%" y2="4.52932337%" id="linearGradient-1">
            <stop stop-color="#8575C3" offset="0%"></stop>
            <stop stop-color="#CFA0A0" offset="100%"></stop>
        </linearGradient>
    </defs>
    <g id="Page-1" stroke="none" stroke-width="1" fill="none" fill-rule="evenodd">
        <g id="Partner-Opt-1" transform="translate(-802.000000, -1791.000000)">
            <g id="Features" transform="translate(106.000000, 1601.000000)">
                <g id="Row-1" transform="translate(0.000000, 192.000000)">
                    <g id="3" transform="translate(601.000000, 0.000000)">
                        <g id="Group-20" transform="translate(97.000000, 0.000000)">
                            <circle id="Oval-Copy-7" stroke="url(#linearGradient-1)" stroke-width="2.5" fill="#171933" cx="30" cy="30" r="30"></circle>
                            <g id="iconfinder_x-18_2662458" transform="translate(15.000000, 15.000000)" fill="#FFFFFF">
                                <g id="Group" transform="translate(5.357143, 6.428571)" fill-rule="nonzero">
                                    <path d="M5.30303571,5.71875 L5.30303571,8.04964286 L6.42803571,8.45142857 C6.58875,8.93357143 6.74946429,9.41571429 6.99053571,9.8175 L6.50839286,10.9425 L8.11553571,12.5496429 L9.24053571,12.0675 C9.64232143,12.3085714 10.1244643,12.4692857 10.6066071,12.63 L11.0083929,13.755 L13.3392857,13.755 L13.7410714,12.63 C14.2232143,12.4692857 14.7053571,12.3085714 15.1071429,12.0675 L16.2321429,12.5496429 L17.8392857,10.9425 L17.3571429,9.8175 C17.5982143,9.41571429 17.7589286,8.93357143 17.9196429,8.45142857 L19.0446429,8.04964286 L19.0446429,5.71875 L17.9196429,5.31696429 C17.7589286,4.83482143 17.5982143,4.35267857 17.3571429,3.95089286 L17.8392857,2.82589286 L16.2321429,1.21875 L15.1071429,1.70089286 C14.7053571,1.45982143 14.2232143,1.29910714 13.7410714,1.13839286 L13.3392857,0.0133928571 L11.0089286,0.0133928571 L10.6071429,1.13839286 C10.125,1.29910714 9.72321429,1.45982143 9.24107143,1.70089286 L8.11607143,1.21875 L6.50892857,2.82589286 L6.99107143,3.95089286 C6.75,4.35267857 6.58928571,4.83482143 6.42857143,5.31696429 L5.30303571,5.71875 Z M9.40178571,6.92410714 C9.40178571,5.39732143 10.6875,4.11107143 12.2148214,4.11107143 C13.7421429,4.11107143 15.0278571,5.39678571 15.0278571,6.92410714 C15.0278571,8.45142857 13.7421429,9.73714286 12.2148214,9.73714286 C10.6875,9.73714286 9.40178571,8.45089286 9.40178571,6.92410714 Z" id="Shape"></path>
                                    <path d="M0.24,11.505 L0.641785714,12.4692857 L1.20428571,12.4692857 C1.365,12.63 1.52571429,12.7907143 1.68642857,12.9514286 L1.68642857,13.5139286 L2.65071429,13.9157143 L3.0525,13.5139286 C3.21321429,13.5139286 3.45428571,13.5139286 3.69535714,13.5139286 L4.09714286,13.9157143 L5.06142857,13.5139286 L5.06142857,12.9514286 C5.22214286,12.7907143 5.38285714,12.63 5.54357143,12.4692857 L6.10607143,12.4692857 L6.50785714,11.505 L6.10607143,11.1032143 C6.10607143,10.9425 6.10607143,10.7014286 6.10607143,10.4603571 L6.50785714,10.0585714 L6.10607143,9.09428571 L5.54357143,9.09428571 C5.38285714,8.93357143 5.22214286,8.77285714 5.06142857,8.61214286 L5.06142857,8.04964286 L4.09714286,7.64785714 L3.69535714,7.96928571 C3.53464286,7.96928571 3.29357143,7.96928571 3.0525,7.96928571 L2.65071429,7.5675 L1.68642857,7.96928571 L1.68642857,8.53178571 C1.52571429,8.6925 1.365,8.85321429 1.20428571,9.01392857 L0.641785714,9.01392857 L0.24,9.97821429 L0.641785714,10.38 C0.641785714,10.5407143 0.641785714,10.7817857 0.641785714,11.0228571 L0.24,11.505 Z M2.16857143,11.1835714 C1.9275,10.5407143 2.24892857,9.73714286 2.89178571,9.49607143 C3.53464286,9.255 4.33821429,9.57642857 4.57928571,10.2192857 C4.82035714,10.8621429 4.49892857,11.6657143 3.85607143,11.9067857 C3.21321429,12.1478571 2.40964286,11.8264286 2.16857143,11.1835714 Z" id="Shape"></path>
                                </g>
                                <path d="M25.5696429,23.6442857 C26.1707143,22.8932143 26.7417857,22.09875 27.2169643,21.3541071 C28.8444643,18.93375 29.6475,16.1651786 29.53875,13.3478571 C29.4380357,10.7325 28.5696429,8.18410714 27.0289286,5.9775 C25.4833929,3.76607143 23.3801786,2.06892857 20.9475,1.07035714 C18.3466071,0.00214285714 15.4789286,-0.201428571 12.6776786,0.476785714 C12.5801786,0.492857143 12.495,0.514821429 12.435,0.533571429 L12.2898214,0.572678571 C4.42553571,2.67482143 3.06910714,8.71767857 2.85160714,11.2103571 C2.75142857,12.0675 3.02303571,12.8207143 3.25232143,13.4319643 C3.23892857,13.5385714 3.15321429,13.9451786 2.61267857,14.8446429 C2.17821429,15.5683929 1.57607143,16.3960714 0.99375,17.07 L0.915,17.1723214 C0.257678571,18.1108929 0.4425,18.9348214 0.61125,19.3425 C0.85125,19.9253571 1.33928571,20.3967857 2.0625,20.7466071 C2.03517857,20.8451786 2.01535714,20.9458929 2.00357143,21.0482143 C1.94464286,21.54375 2.07107143,22.0682143 2.37,22.5728571 C2.19696429,23.4573214 2.57571429,24.1928571 2.98982143,24.5839286 C3.12964286,24.735 3.08571429,25.2283929 2.99625,25.4951786 L2.94535714,25.635 L2.9175,25.8605357 C2.84357143,26.7926786 3.17035714,27.6182143 3.83571429,28.185 C4.57821429,28.8176786 5.72357143,29.10375 7.24928571,29.0303571 C8.30196429,28.9816071 9.225,28.7758929 9.47196429,28.7164286 C10.2010714,28.5717857 10.5182143,28.8182143 10.7158929,29.0485714 C10.8680357,29.2253571 10.9660714,29.4251786 11.0217857,29.56125 C11.1160714,29.7953571 11.37,29.925 11.6164286,29.8628571 L12.4248214,29.6582143 C12.5641071,29.6233929 12.6819643,29.5301786 12.7489286,29.4026786 C12.8158929,29.2751786 12.8260714,29.1251786 12.77625,28.9896429 C12.6664286,28.6923214 12.4617857,28.2525 12.1125,27.8464286 C11.5955357,27.2458929 10.6532143,26.5982143 9.06321429,26.9196429 C7.85035714,27.2126786 5.77553571,27.4173214 5.02982143,26.7814286 C4.82785714,26.6094643 4.73625,26.3710714 4.75071429,26.0539286 C4.86589286,25.69125 5.24035714,24.2485714 4.2675,23.2575 C4.2375,23.2291071 4.09392857,23.0748214 4.22035714,22.7935714 L4.45071429,22.2803571 L4.09928571,21.8410714 C3.885,21.5726786 3.82178571,21.3626786 3.83303571,21.2657143 C3.83732143,21.2341071 3.8475,21.19875 3.9,21.1526786 L4.20964286,20.8773214 L4.20964286,19.5107143 L3.52714286,19.3280357 C2.75625,19.1207143 2.3925,18.8282143 2.31482143,18.6407143 C2.29714286,18.5978571 2.25,18.4842857 2.40910714,18.25125 C3.08196429,17.4707143 3.77517857,16.5080357 4.26375,15.6760714 C5.25160714,13.9928571 5.15785714,13.2551786 5.00089286,12.8458929 C4.81071429,12.3369643 4.63125,11.8564286 4.68696429,11.3876786 C4.87017857,9.27482143 6.02142857,4.16517857 12.7151786,2.36732143 L13.065,2.27785714 C15.5169643,1.68 18.0005357,1.85196429 20.2489286,2.775 C22.3548214,3.63964286 24.1767857,5.11178571 25.51875,7.03285714 C26.8575,8.94910714 27.6107143,11.1573214 27.6980357,13.4191071 C27.7923214,15.8453571 27.0958929,18.2357143 25.6714286,20.35125 C25.2310714,21.0433929 24.7001786,21.7816071 24.1591071,22.4619643 C24.0364286,22.5819643 23.4160714,23.2451786 23.2178571,24.5046429 C22.9794643,26.025 23.4348214,27.7628571 24.5828571,29.6860714 L24.72375,29.9153571 L24.9525,29.7733929 C25.665,29.3308929 25.9398214,28.4217857 25.5916071,27.6583929 C24.3594643,24.9546429 25.41,23.8183929 25.4464286,23.7803571 L25.5696429,23.6442857 Z" id="Path"></path>
                            </g>
                        </g>
                    </g>
                </g>
            </g>
        </g>
    </g>
</svg>