<?xml version="1.0" encoding="UTF-8"?>
<svg width="42px" height="25px" viewBox="0 0 42 25" version="1.1" xmlns="http://www.w3.org/2000/svg" xmlns:xlink="http://www.w3.org/1999/xlink">
    <!-- Generator: sketchtool 54.1 (76490) - https://sketchapp.com -->
    <title>1DA96F00-2D2C-4F2F-9122-EDA075CF2C77</title>
    <desc>Created with sketchtool.</desc>
    <g id="Page-1" stroke="none" stroke-width="1" fill="none" fill-rule="evenodd">
        <g id="Partner-Opt-1" transform="translate(-774.000000, -1319.000000)" fill="#2A2A2A" fill-rule="nonzero">
            <g id="our-product" transform="translate(98.000000, 913.000000)">
                <g id="context" transform="translate(0.000000, 138.000000)">
                    <g id="data">
                        <g id="2" transform="translate(400.000000, 0.000000)">
                            <g id="Group-15" transform="translate(26.000000, 30.000000)">
                                <g id="feature" transform="translate(0.000000, 226.000000)">
                                    <g id="1-copy-2" transform="translate(223.000000, 12.000000)">
                                        <g id="iconfinder_011_handshake_partner_associate_hand_364860" transform="translate(27.000000, 0.000000)">
                                            <path d="M40.8471,17.8815 C40.6679,18.8776 39.7992,19.6 38.7814,19.6 C38.7814,19.6 34.3,19.6 34.3,19.6 C33.3886,19.6 32.6186,19.0127 32.3288,18.2 C32.3288,18.2 31.0247,18.2 31.0247,18.2 C31.4433,19.3515 31.0688,20.4848 29.9999,21.1624 C29.4609,21.504 28.7826,21.6741 28.14,21.6258 C27.8264,21.602 27.5359,21.5285 27.2811,21.4116 C26.9297,21.8442 26.4754,22.1753 26.1968,22.3321 C25.3988,22.7808 24.4944,22.8396 23.7349,22.5617 C23.4381,22.9677 23.1672,23.1378 22.8438,23.3114 C22.8438,23.3114 22.7409,23.3674 22.7409,23.3674 C22.19,23.6726 21.5432,23.8448 20.9188,23.8448 C20.3525,23.8448 19.8142,23.6866 19.3718,23.3744 C19.2227,23.471 19.061,23.562 18.865,23.6663 C18.3876,23.9225 17.8283,24.0583 17.2494,24.0583 C16.0573,24.0583 14.7847,23.4815 13.9776,22.1865 C12.8506,20.3791 11.7516,18.3099 11.3148,17.4713 C11.3148,17.4713 9.8,17.4713 9.8,17.4713 C9.8,17.4713 9.8,17.5 9.8,17.5 C9.8,18.6578 8.8578,19.6 7.7,19.6 C7.7,19.6 3.2186,19.6 3.2186,19.6 C2.2008,19.6 1.3321,18.8776 1.1522,17.8815 C0.1309,12.1968 -0.0077,7.3003 5.42101086e-20,4.8874 C0.0042,3.7366 0.9464,2.8 2.1007,2.8 C2.1007,2.8 7.7,2.8 7.7,2.8 C8.6114,2.8 9.3807,3.3866 9.6712,4.2 C9.6712,4.2 13.1215,4.2 13.1215,4.2 C13.1215,4.2 14.5677,3.4111 14.5677,3.4111 C15.3006,3.0114 16.1294,2.8 16.9645,2.8 C16.9645,2.8 18.0831,2.8 18.0831,2.8 C18.1727,2.8 18.2567,2.8203 18.3358,2.8511 C18.3358,2.8511 19.131,1.8788 19.131,1.8788 C20.1075,0.6846 21.553,0 23.0958,0 C23.0958,0 25.4338,0 25.4338,0 C26.3354,0 27.2083,0.2639 27.958,0.7644 C27.958,0.7644 32.5171,3.8038 32.5171,3.8038 C32.8874,3.2039 33.5447,2.8 34.3,2.8 C34.3,2.8 39.8993,2.8 39.8993,2.8 C41.0529,2.8 41.9958,3.7366 41.9993,4.8874 C42.0077,7.3003 41.8691,12.1968 40.8471,17.8815 Z M8.4,4.9 C8.4,4.5143 8.0857,4.2 7.7,4.2 C7.7,4.2 2.1007,4.2 2.1007,4.2 C1.7157,4.2 1.4014,4.5108 1.4,4.8923 C1.3923,7.2576 1.5281,12.0582 2.5305,17.6337 C2.5893,17.962 2.8791,18.2 3.2186,18.2 C3.2186,18.2 7.7,18.2 7.7,18.2 C8.0857,18.2 8.4,17.8857 8.4,17.5 C8.4,17.5 8.4,4.9 8.4,4.9 Z M16.9645,4.2 C16.3632,4.2 15.7661,4.3526 15.2376,4.6403 C15.2376,4.6403 13.6353,5.5146 13.6353,5.5146 C13.5324,5.5706 13.4169,5.6 13.3,5.6 C13.3,5.6 9.8,5.6 9.8,5.6 C9.8,5.6 9.8,16.0713 9.8,16.0713 C9.8,16.0713 11.7411,16.0713 11.7411,16.0713 C12.005,16.0713 12.2458,16.219 12.3655,16.4542 C12.3795,16.4815 13.7522,19.1786 15.1655,21.4466 C16.0552,22.8753 17.5021,22.8095 18.2042,22.4329 C18.3253,22.3678 18.4142,22.3181 18.4898,22.274 C18.4898,22.274 16.9589,19.6133 16.9589,19.6133 C16.7664,19.2787 16.8819,18.851 17.2172,18.6578 C17.5532,18.4653 17.9795,18.5801 18.1727,18.9154 C18.1727,18.9154 19.978,22.0542 19.978,22.0542 C20.321,22.5932 21.3374,22.5435 22.0626,22.1424 C22.0626,22.1424 22.1809,22.078 22.1809,22.078 C22.3615,21.9814 22.4693,21.924 22.6044,21.7392 C22.5603,21.6818 22.5183,21.6216 22.4784,21.5586 C22.4784,21.5586 20.4771,17.9984 20.4771,17.9984 C20.2874,17.6617 20.4078,17.2347 20.7445,17.0457 C21.0812,16.856 21.5082,16.9757 21.6972,17.3131 C21.6972,17.3131 23.6803,20.8411 23.6803,20.8411 C24.0492,21.4207 24.9221,21.4424 25.5101,21.112 C25.7901,20.9545 26.1373,20.6451 26.2976,20.3917 C26.2976,20.3917 24.0142,16.2505 24.0142,16.2505 C23.8273,15.9117 23.9512,15.4861 24.29,15.2992 C24.6288,15.113 25.0537,15.2355 25.2406,15.575 C25.2406,15.575 27.6934,20.0263 27.6934,20.0263 C27.7529,20.1173 27.9713,20.209 28.2429,20.2293 C28.5894,20.2552 28.9639,20.1614 29.2502,19.9801 C29.9656,19.5265 29.8515,18.9126 29.6296,18.4772 C28.0294,15.3391 26.9969,13.4169 26.9864,13.398 C26.985,13.3945 26.985,13.391 26.9836,13.3882 C26.9836,13.3882 23.6103,7.3906 23.6103,7.3906 C23.3849,6.9909 22.7927,6.8859 22.4434,7.1848 C22.4434,7.1848 19.6637,9.5669 19.6637,9.5669 C18.4065,10.6442 16.604,10.703 15.2796,9.7097 C15.2796,9.7097 14.9996,9.4997 14.9996,9.4997 C14.6559,9.2421 14.4375,8.8655 14.3864,8.4385 C14.3346,8.0178 14.4592,7.5887 14.7273,7.2604 C14.7273,7.2604 17.2319,4.2 17.2319,4.2 C17.2319,4.2 16.9645,4.2 16.9645,4.2 Z M27.1817,1.9292 C26.6623,1.5827 26.0582,1.4 25.4338,1.4 C25.4338,1.4 23.0958,1.4 23.0958,1.4 C21.9744,1.4 20.9244,1.8977 20.2146,2.7657 C20.2146,2.7657 15.8109,8.1473 15.8109,8.1473 C15.7745,8.1914 15.7717,8.2376 15.7759,8.2691 C15.7794,8.3006 15.7934,8.3454 15.8396,8.3797 C15.8396,8.3797 16.1196,8.5897 16.1196,8.5897 C16.9155,9.1868 17.9977,9.1511 18.7523,8.5043 C18.7523,8.5043 21.5327,6.1215 21.5327,6.1215 C21.9247,5.7848 22.4252,5.6 22.9425,5.6 C23.7237,5.6 24.4468,6.0228 24.8304,6.7039 C24.8304,6.7039 30.5095,16.8 30.5095,16.8 C30.5095,16.8 32.2,16.8 32.2,16.8 C32.2,16.8 32.2,5.2745 32.2,5.2745 C32.2,5.2745 27.1817,1.9292 27.1817,1.9292 Z M39.8993,4.2 C39.8993,4.2 34.3,4.2 34.3,4.2 C33.9143,4.2 33.6,4.5143 33.6,4.9 C33.6,4.9 33.6,17.5 33.6,17.5 C33.6,17.8857 33.9143,18.2 34.3,18.2 C34.3,18.2 38.7814,18.2 38.7814,18.2 C39.1209,18.2 39.4107,17.962 39.4695,17.6337 C40.4719,12.0582 40.6077,7.2576 40.5993,4.8923 C40.5979,4.5108 40.2843,4.2 39.8993,4.2 Z M37.1,15.4 C36.918,15.4 36.736,15.323 36.603,15.197 C36.477,15.064 36.4,14.882 36.4,14.7 C36.4,14.518 36.477,14.336 36.603,14.203 C36.862,13.944 37.3303,13.944 37.597,14.203 C37.7223,14.336 37.8,14.518 37.8,14.7 C37.8,14.882 37.7223,15.064 37.597,15.197 C37.464,15.323 37.282,15.4 37.1,15.4 Z M4.9,15.4 C4.718,15.4 4.536,15.323 4.403,15.197 C4.277,15.064 4.2,14.882 4.2,14.7 C4.2,14.518 4.277,14.336 4.403,14.203 C4.669,13.944 5.138,13.944 5.397,14.203 C5.5223,14.336 5.6,14.518 5.6,14.7 C5.6,14.882 5.5223,15.064 5.397,15.197 C5.264,15.323 5.089,15.4 4.9,15.4 Z" id="Shape"></path>
                                        </g>
                                    </g>
                                </g>
                            </g>
                        </g>
                    </g>
                </g>
            </g>
        </g>
    </g>
</svg>