<?xml version="1.0" encoding="UTF-8"?>
<svg width="64px" height="64px" viewBox="0 0 64 64" version="1.1" xmlns="http://www.w3.org/2000/svg" xmlns:xlink="http://www.w3.org/1999/xlink">
    <!-- Generator: sketchtool 54.1 (76490) - https://sketchapp.com -->
    <title>30762B3D-25B4-4F62-BE0D-6798B4CA3E68</title>
    <desc>Created with sketchtool.</desc>
    <defs>
        <linearGradient x1="86.6983366%" y1="104.251614%" x2="15.3615869%" y2="4.52932337%" id="linearGradient-1">
            <stop stop-color="#8575C3" offset="0%"></stop>
            <stop stop-color="#CFA0A0" offset="100%"></stop>
        </linearGradient>
    </defs>
    <g id="Page-1" stroke="none" stroke-width="1" fill="none" fill-rule="evenodd">
        <g id="Partner-Opt-1" transform="translate(-202.000000, -2027.000000)">
            <g id="Features" transform="translate(106.000000, 1601.000000)">
                <g id="Row-1-Copy" transform="translate(0.000000, 428.000000)">
                    <g id="1">
                        <g id="iconfinder_Wrenches_And_Gear_509116-Copy" transform="translate(98.000000, 0.000000)">
                            <circle id="Oval" stroke="url(#linearGradient-1)" stroke-width="2.5" fill="#171933" cx="30" cy="30" r="30"></circle>
                            <path d="M16.9309365,33.2045402 C16.0257651,32.7065036 15.4093914,31.8927454 15.1450855,30.9779781 C14.9862821,30.4279183 14.955589,29.8423457 15.0641531,29.2682992 L17.3105574,31.0087403 C17.6816219,31.2971264 18.4279113,30.9646607 18.9780319,30.2667865 C19.5262686,29.5686008 19.6716486,28.7697175 19.3000346,28.4825774 L16.9726194,26.6781977 C17.2093722,26.5516442 17.4577429,26.4515696 17.7152979,26.3776624 C18.6376605,26.1151321 19.6599523,26.202123 20.5658301,26.6995365 C21.2539518,27.0782623 21.6170095,27.7232567 22.0420027,28.7794524 C22.4357534,29.7580806 22.5136244,30.4033864 24.962399,31.7489028 C24.962399,31.7489028 26.7255638,32.7546329 28.7879665,33.9313075 C27.6313631,34.5911767 26.5145586,35.228461 25.670695,35.7100651 L22.1425599,33.6885585 C21.1883267,33.1427821 20.5283861,33.1491682 19.9985182,33.207889 C18.9233967,33.5133306 17.7477965,33.654136 16.9309365,33.2045402 Z M40.3082362,38.0281351 C39.4913761,37.5785393 38.3156974,37.7196562 37.2412824,38.0257208 C36.7126705,38.0831956 36.0705491,38.0898932 35.1126265,37.540768 C34.9850657,37.4677174 34.707886,37.3095451 34.3294425,37.0935865 L31.2078535,38.8817674 L32.7477673,39.7639813 C34.8255559,40.9537396 34.8028697,41.4745947 35.1971699,42.4538459 C35.6215352,43.5106647 35.9858488,44.1544129 36.6733425,44.5334503 C37.5791418,45.0308638 38.6020616,45.1175432 39.5244242,44.8550129 C39.7808017,44.7819623 40.0298004,44.6807196 40.2664747,44.5541661 L37.939138,42.7501757 C37.567524,42.4635808 37.7128255,41.6638408 38.2611407,40.9653436 C38.8106333,40.2677809 39.5581787,39.9355489 39.9286153,40.2242465 L42.1750196,41.9649991 C42.2835836,41.3900181 42.251713,40.804757 42.0947151,40.2556318 C41.8291532,39.3405529 41.212858,38.5261716 40.3082362,38.0281351 Z M20.0708942,40.2243244 C20.4419588,39.9356267 21.1888762,40.2678588 21.7383688,40.9654215 C22.2866055,41.6639187 22.4319855,42.4636587 22.0603715,42.7502536 L19.7330348,44.554244 C19.9697876,44.6807974 20.2187863,44.7821181 20.4757133,44.8550908 C21.3974479,45.1176211 22.4203677,45.0309417 23.3262455,44.5335282 C24.0137392,44.1544908 24.3779743,43.5107426 24.8024181,42.4539238 C25.1967183,41.4746726 25.1740321,40.9538175 27.2518207,39.7640592 L37.8577346,33.6885585 C38.8113398,33.1427821 39.4712804,33.1491682 40.0017763,33.207889 C41.0762698,33.5133306 42.25187,33.654136 43.06873,33.2045402 C43.9745294,32.7065036 44.5902751,31.8927454 44.855209,30.9779781 C45.0134629,30.4279183 45.0447055,29.8423457 44.9355134,29.2682992 L42.6891091,31.0087403 C42.3180446,31.2971264 41.5717552,30.9646607 41.0216346,30.2667865 C40.4733979,29.5686008 40.3280179,28.7697175 40.6996319,28.4825774 L43.0269686,26.6782755 C42.7902158,26.5517221 42.5418451,26.4516475 42.2849181,26.3777403 C41.3619275,26.11521 40.3396357,26.2022009 39.4338364,26.6996144 C38.7457147,27.0783402 38.382657,27.7233345 37.9576638,28.7795303 C37.5639131,29.7581584 37.4860421,30.4034643 35.0372675,31.7489807 C35.0372675,31.7489807 25.8461401,36.99211 24.8869615,37.5409237 C23.9290389,38.0900489 23.2869175,38.0833513 22.7589336,38.0258766 C21.6838906,37.7198119 20.5082119,37.5786951 19.6913518,38.0282909 C18.7868085,38.5263274 18.1704348,39.3407087 17.9048729,40.2557875 C17.747875,40.8049127 17.7160044,41.3901738 17.8245684,41.9651549 L20.0708942,40.2243244 Z M37.3614643,22.3051331 C37.3614643,22.745617 37.2934057,23.0148449 37.1689064,23.4270587 L34.7955693,23.8180115 C34.7085139,24.0893422 34.5986939,24.3497697 34.4686997,24.5985933 L35.8694348,26.5404296 C35.6640031,26.9188439 35.519251,27.1573875 35.2046273,27.4692152 C34.8900035,27.7813544 34.6501892,27.9243404 34.2687629,28.1284614 L32.3111562,26.7387876 C32.0597241,26.8680668 31.7972236,26.9773311 31.5243613,27.0630759 L31.1306105,29.4176712 C30.7154296,29.5411874 30.4431168,29.6087085 29.9984988,29.6087085 C29.5545087,29.6087085 29.2821959,29.5414989 28.867015,29.4173597 L28.4732643,27.0633096 C28.2003234,26.9772532 27.9372735,26.8679889 27.6864694,26.7387097 L25.7294907,28.128695 C25.3474363,27.9242625 25.106994,27.7815881 24.7923703,27.4694488 C24.4777465,27.1573096 24.3336224,26.9188439 24.1288187,26.5403517 L25.5295539,24.5985154 C25.3995596,24.3493803 25.2891116,24.0889528 25.2026842,23.8179337 L22.8298966,23.4276039 C22.7041413,23.01539 22.6360828,22.7458506 22.6360828,22.3041206 C22.6360828,21.8636367 22.7041413,21.5937858 22.8286407,21.1818835 L25.2019778,20.7912421 C25.2890331,20.520223 25.3988531,20.259484 25.5294754,20.0106604 L24.1287402,18.0685126 C24.3341719,17.6897867 24.478296,17.4512432 24.7922918,17.139727 C25.1069155,16.8269647 25.3472793,16.6842903 25.7287842,16.4804808 L27.6863909,17.8695316 C27.937823,17.7411869 28.2003234,17.6316111 28.4731858,17.5455547 L28.8669365,15.1915046 C29.2821959,15.0675211 29.5545087,15 29.9984988,15 C30.4431168,15 30.7154296,15.0678327 31.1306105,15.1910373 L31.5243613,17.5453211 C31.7973021,17.631689 32.060352,17.7409533 32.3117842,17.8702325 L34.2681349,16.4805587 C34.6501892,16.6843682 34.8906315,16.8276656 35.2052553,17.1398049 C35.519251,17.4516326 35.6640031,17.6900983 35.8694348,18.068902 L34.4686997,20.0107383 C34.5986939,20.2598734 34.7091419,20.5203009 34.7955693,20.79132 L37.1689064,21.1819614 C37.2934057,21.5935522 37.3614643,21.8630916 37.3614643,22.3051331 Z M32.5424141,22.3041985 C32.5417861,20.9111759 31.4035514,19.7810729 29.9985773,19.7816181 C28.5941526,19.7819296 27.455918,20.9111759 27.455918,22.3050552 C27.4565459,23.6980778 28.5947806,24.8276356 29.9991268,24.8273241 C31.4034729,24.8270126 32.5417861,23.6981557 32.5424141,22.3041985 Z" id="Shape-Copy" fill="#FFFFFF" fill-rule="nonzero"></path>
                        </g>
                    </g>
                </g>
            </g>
        </g>
    </g>
</svg>