<?xml version="1.0" encoding="UTF-8"?>
<svg width="64px" height="64px" viewBox="0 0 64 64" version="1.1" xmlns="http://www.w3.org/2000/svg" xmlns:xlink="http://www.w3.org/1999/xlink">
    <!-- Generator: sketchtool 54.1 (76490) - https://sketchapp.com -->
    <title>40EE2FA3-3E35-445A-88CD-AE5688979643</title>
    <desc>Created with sketchtool.</desc>
    <defs>
        <linearGradient x1="86.6983366%" y1="104.251614%" x2="15.3615869%" y2="4.52932337%" id="linearGradient-1">
            <stop stop-color="#8575C3" offset="0%"></stop>
            <stop stop-color="#CFA0A0" offset="100%"></stop>
        </linearGradient>
    </defs>
    <g id="Page-1" stroke="none" stroke-width="1" fill="none" fill-rule="evenodd">
        <g id="Partner-Opt-1" transform="translate(-502.000000, -2027.000000)">
            <g id="Features" transform="translate(106.000000, 1601.000000)">
                <g id="Row-1-Copy" transform="translate(0.000000, 428.000000)">
                    <g id="2" transform="translate(300.000000, 0.000000)">
                        <g id="icon-3-copy" transform="translate(98.000000, 0.000000)">
                            <circle id="Oval-Copy-6" stroke="url(#linearGradient-1)" stroke-width="2.5" fill="#171933" cx="30" cy="30" r="30"></circle>
                            <g id="iconfinder_33_3424716" transform="translate(14.000000, 14.000000)" fill="#FFFFFF">
                                <path d="M16.447619,3.24761905 C19.2238095,3.24761905 21.1095238,2.35714286 21.1619048,1.78095238 L21.1619048,1.78095238 C21.1619048,1.78095238 21.1619048,1.78095238 21.1619048,1.78095238 C21.1619048,1.2047619 19.2761905,0.314285714 16.447619,0.314285714 C13.6190476,0.314285714 11.7857143,1.2047619 11.7333333,1.78095238 C11.7333333,1.78095238 11.7333333,1.78095238 11.7333333,1.78095238 L11.7333333,1.78095238 C11.7857143,2.35714286 13.6714286,3.24761905 16.447619,3.24761905 Z" id="Path"></path>
                                <path d="M10.7380952,1.46666667 L10.7380952,1.46666667 L10.6857143,1.78095238 C10.7380952,1.62380952 10.7380952,1.57142857 10.7380952,1.46666667 L10.7380952,1.46666667 Z" id="Path"></path>
                                <path d="M16.447619,7.7 C19.2761905,7.7 21.1619048,6.80952381 21.1619048,6.23333333 L21.1619048,3.3 C20.0619048,3.98095238 18.2809524,4.2952381 16.447619,4.2952381 C14.6142857,4.2952381 12.8333333,3.92857143 11.7333333,3.3 L11.7333333,6.18095238 C11.7857143,6.80952381 13.6714286,7.7 16.447619,7.7 Z M18.1238095,5.44761905 L19.1190476,5.44761905 L19.1190476,6.4952381 L18.1238095,6.4952381 L18.1238095,5.44761905 Z M15.9761905,5.44761905 L16.9714286,5.44761905 L16.9714286,6.4952381 L15.9761905,6.4952381 L15.9761905,5.44761905 Z M13.7761905,5.44761905 L14.7714286,5.44761905 L14.7714286,6.4952381 L13.7761905,6.4952381 L13.7761905,5.44761905 Z" id="Shape" fill-rule="nonzero"></path>
                                <path d="M16.447619,12.1 C19.2761905,12.1 21.1619048,11.2095238 21.1619048,10.5809524 L21.1619048,7.7 C18.9619048,9.00952381 13.9857143,9.00952381 11.7857143,7.7 L11.7857143,10.5809524 C11.7857143,11.2095238 13.6714286,12.1 16.447619,12.1 Z M18.1238095,9.95238095 L19.1190476,9.95238095 L19.1190476,11 L18.1238095,11 L18.1238095,9.95238095 Z M15.9761905,9.95238095 L16.9714286,9.95238095 L16.9714286,11 L15.9761905,11 L15.9761905,9.95238095 Z M13.7761905,9.95238095 L14.7714286,9.95238095 L14.7714286,11 L13.7761905,11 L13.7761905,9.95238095 Z" id="Shape" fill-rule="nonzero"></path>
                                <path d="M16.447619,16.552381 C19.2761905,16.552381 21.1095238,15.6619048 21.1619048,15.0857143 C21.1619048,15.0857143 21.1619048,15.0857143 21.1619048,15.0857143 L21.1619048,12.2047619 C20.0619048,12.8857143 18.2809524,13.2 16.447619,13.2 C14.6142857,13.2 12.8333333,12.8333333 11.7333333,12.2047619 L11.7333333,15.1380952 C11.7857143,15.6619048 13.6714286,16.552381 16.447619,16.552381 Z M18.1238095,14.352381 L19.1190476,14.352381 L19.1190476,15.4 L18.1238095,15.4 L18.1238095,14.352381 Z M15.9761905,14.352381 L16.9714286,14.352381 L16.9714286,15.4 L15.9761905,15.4 L15.9761905,14.352381 Z M13.7761905,14.352381 L14.7714286,14.352381 L14.7714286,15.4 L13.7761905,15.4 L13.7761905,14.352381 Z" id="Shape" fill-rule="nonzero"></path>
                                <path d="M28.1285714,23.2047619 C29.4904762,23.2047619 30.5904762,22.9952381 31.3761905,22.7333333 C32.1619048,22.4714286 32.5809524,22.1047619 32.5809524,21.8952381 C32.5809524,21.4238095 30.9047619,20.5333333 28.1809524,20.5333333 C25.4571429,20.5333333 23.7809524,21.4238095 23.7809524,21.8952381 C23.7285714,22.3142857 25.4047619,23.2047619 28.1285714,23.2047619 Z" id="Path"></path>
                                <path d="M23.7285714,23.4142857 L23.7285714,26.0857143 L23.7285714,26.0857143 C23.7285714,26.5571429 25.4047619,27.447619 28.1285714,27.447619 C30.852381,27.447619 32.5285714,26.5571429 32.5285714,26.0857143 C32.5285714,26.0857143 32.5285714,26.0857143 32.5285714,26.0857143 L32.5285714,23.4142857 C31.4285714,24.0428571 29.752381,24.3571429 28.1285714,24.3571429 C26.452381,24.3571429 24.7761905,24.0428571 23.7285714,23.4142857 Z" id="Path"></path>
                                <path d="M23.7285714,27.6571429 L23.7285714,30.3285714 C23.7285714,30.3285714 23.7285714,30.3285714 23.7285714,30.3285714 C23.7285714,30.8 25.4047619,31.6904762 28.1285714,31.6904762 C30.852381,31.6904762 32.5285714,30.8 32.5285714,30.3285714 L32.5285714,27.6571429 C31.4285714,28.2857143 29.752381,28.6 28.1285714,28.6 C26.452381,28.6 24.7761905,28.2857143 23.7285714,27.6571429 Z" id="Path"></path>
                                <path d="M4.87142857,20.4809524 C2.14761905,20.4809524 0.471428571,21.3714286 0.471428571,21.8428571 C0.471428571,22.3142857 2.14761905,23.2047619 4.87142857,23.2047619 C6.23333333,23.2047619 7.33333333,22.9952381 8.11904762,22.7333333 C8.9047619,22.4714286 9.32380952,22.1047619 9.32380952,21.8952381 C9.27142857,21.3714286 7.5952381,20.4809524 4.87142857,20.4809524 Z" id="Path"></path>
                                <path d="M0.419047619,23.4142857 L0.419047619,26.0857143 L0.419047619,26.0857143 C0.419047619,26.5571429 2.0952381,27.447619 4.81904762,27.447619 C7.54285714,27.447619 9.21904762,26.5571429 9.21904762,26.0857143 C9.21904762,26.0857143 9.21904762,26.0857143 9.21904762,26.0857143 L9.21904762,23.4142857 C8.11904762,24.0428571 6.44285714,24.3571429 4.81904762,24.3571429 C3.1952381,24.3571429 1.51904762,24.0428571 0.419047619,23.4142857 Z" id="Path"></path>
                                <path d="M0.419047619,27.6571429 L0.419047619,30.3285714 C0.419047619,30.3285714 0.419047619,30.3285714 0.419047619,30.3285714 C0.419047619,30.8 2.0952381,31.6904762 4.81904762,31.6904762 C7.54285714,31.6904762 9.21904762,30.8 9.21904762,30.3285714 L9.21904762,27.6571429 C8.11904762,28.2857143 6.44285714,28.6 4.81904762,28.6 C3.1952381,28.6 1.51904762,28.2857143 0.419047619,27.6571429 Z" id="Path"></path>
                                <path d="M16.9714286,17.6 C16.8142857,17.6 16.6047619,17.6 16.447619,17.6 C16.2904762,17.6 16.0809524,17.6 15.9238095,17.6 L15.9238095,22.1047619 L10.3190476,25.4047619 L10.3190476,26.6095238 L16.447619,22.9952381 L22.6285714,26.6619048 L22.6285714,25.4571429 L16.9714286,22.1047619 L16.9714286,17.6 L16.9714286,17.6 Z" id="Path"></path>
                            </g>
                        </g>
                    </g>
                </g>
            </g>
        </g>
    </g>
</svg>