<?xml version="1.0" encoding="UTF-8"?>
<svg width="70px" height="70px" viewBox="0 0 70 70" version="1.1" xmlns="http://www.w3.org/2000/svg" xmlns:xlink="http://www.w3.org/1999/xlink">
    <!-- Generator: sketchtool 54.1 (76490) - https://sketchapp.com -->
    <title>6D81DDB5-7F13-4856-944B-A108486F6D30</title>
    <desc>Created with sketchtool.</desc>
    <g id="Page-1" stroke="none" stroke-width="1" fill="none" fill-rule="evenodd">
        <g id="Partner-Opt-1" transform="translate(-248.000000, -1081.000000)">
            <g id="our-product" transform="translate(98.000000, 913.000000)">
                <g id="context" transform="translate(0.000000, 138.000000)">
                    <g id="data">
                        <g id="1">
                            <g id="Group-6" transform="translate(25.000000, 30.000000)">
                                <g id="icon-copy-2" transform="translate(125.000000, 0.000000)">
                                    <circle id="Oval-Copy-5" fill="#4BB6F5" cx="35" cy="35" r="35"></circle>
                                    <g id="iconfinder_35_1236553" transform="translate(19.000000, 16.000000)" fill="#FFFFFF" fill-rule="nonzero">
                                        <path d="M35.4962713,1.32543411 L2.50372868,1.32543411 C2.18072868,1.32543411 1.88630233,1.45828682 1.67229457,1.67229457 C1.45843411,1.88630233 1.32543411,2.18087597 1.32543411,2.50387597 L1.32543411,8.98449612 C1.32543411,9.30720155 1.45843411,9.60177519 1.67258915,9.81593023 C1.88644961,10.0297907 2.18072868,10.1627907 2.50372868,10.1627907 L19.7784109,10.1627907 C20.1039147,10.1627907 20.3675581,10.4265814 20.3675581,10.751938 C20.3675581,10.8031938 20.3610775,10.8528295 20.3488527,10.9001085 L19.8024186,13.7319922 L24.4366512,10.280031 C24.541814,10.201969 24.6646512,10.1644109 24.7863101,10.1644109 L24.7863101,10.1626434 L35.4962713,10.1626434 C35.8197132,10.1626434 36.1141395,10.029938 36.328,9.81607752 C36.5418605,9.60221705 36.6745659,9.3077907 36.6745659,8.98434884 L36.6745659,2.50387597 C36.6745659,2.18072868 36.5415659,1.88644961 36.3277054,1.67258915 C36.1136977,1.45843411 35.819124,1.32543411 35.4962713,1.32543411 L35.4962713,1.32543411 Z M6.61774419,3.12572093 L7.29835659,4.72643411 L9.07389922,4.90582946 L9.15196124,5.15135659 L7.83978295,6.29327132 L8.21786822,8.03729457 L8.00857364,8.18737984 L6.51714729,7.29231783 L4.97520155,8.19091473 L4.76782171,8.03817829 L5.15813178,6.34305426 L3.82695349,5.15430233 L3.90810853,4.90995349 L5.64093798,4.75736434 L6.36013953,3.12410078 L6.61774419,3.12572093 L6.61774419,3.12572093 Z M31.6361783,3.12572093 L32.3167907,4.72643411 L34.0923333,4.90582946 L34.1703953,5.15135659 L32.8582171,6.29327132 L33.2363023,8.03729457 L33.0270078,8.18737984 L31.5355814,7.29231783 L29.9936357,8.19091473 L29.7862558,8.03817829 L30.1765659,6.34305426 L28.8453876,5.15430233 L28.9265426,4.90995349 L30.6592248,4.75736434 L31.3784264,3.12410078 L31.6361783,3.12572093 L31.6361783,3.12572093 Z M25.3816434,3.12572093 L26.0622558,4.72643411 L27.8379457,4.90582946 L27.9158605,5.15135659 L26.6036822,6.29327132 L26.9817674,8.03729457 L26.7724729,8.18737984 L25.2810465,7.29231783 L23.7391008,8.19091473 L23.5317209,8.03817829 L23.922031,6.34305426 L22.5908527,5.15430233 L22.6720078,4.90995349 L24.4048372,4.75736434 L25.1240388,3.12410078 L25.3816434,3.12572093 L25.3816434,3.12572093 Z M19.1269612,3.12572093 L19.8075736,4.72643411 L21.5831163,4.90582946 L21.6611783,5.15135659 L20.349,6.29327132 L20.7270853,8.03729457 L20.5177907,8.18737984 L19.0263643,7.29231783 L17.4844186,8.19091473 L17.2770388,8.03817829 L17.6673488,6.34305426 L16.3361705,5.15430233 L16.4173256,4.90995349 L18.150155,4.75736434 L18.8693566,3.12410078 L19.1269612,3.12572093 L19.1269612,3.12572093 Z M12.8722791,3.12572093 L13.5528915,4.72643411 L15.3284341,4.90582946 L15.4064961,5.15135659 L14.0943178,6.29327132 L14.4724031,8.03729457 L14.2631085,8.18737984 L12.7716822,7.29231783 L11.2297364,8.19091473 L11.0223566,8.03817829 L11.4126667,6.34305426 L10.0816357,5.15430233 L10.1627907,4.90995349 L11.8956202,4.75736434 L12.6148217,3.12410078 L12.8722791,3.12572093 L12.8722791,3.12572093 Z M2.50372868,0.147139535 L35.4962713,0.147139535 C36.1443333,0.147139535 36.7337752,0.412255814 37.160907,0.839387597 C37.5875969,1.26607752 37.8528605,1.85522481 37.8528605,2.50372868 L37.8528605,8.98434884 C37.8528605,9.633 37.5878915,10.2222946 37.1610543,10.6491318 C36.7342171,11.075969 36.1449225,11.340938 35.4962713,11.340938 L24.9785194,11.340938 L19.3132791,15.5607054 C19.1827829,15.668814 19.0067752,15.7200698 18.8272326,15.6857519 C18.5083566,15.6247752 18.299062,15.3166512 18.3600388,14.9976279 L19.0656899,11.340938 L2.50372868,11.340938 C1.85522481,11.340938 1.26622481,11.0755271 0.839534884,10.6488372 C0.412403101,10.2218527 0.147139535,9.63211628 0.147139535,8.98449612 L0.147139535,2.50387597 C0.147139535,1.85566667 0.412403101,1.26622481 0.83924031,0.839387597 C1.26607752,0.412403101 1.85537209,0.147139535 2.50372868,0.147139535 L2.50372868,0.147139535 Z" id="Shape"></path>
                                        <path d="M13.0992481,30.3122171 L13.8742713,30.8287519 L14.2918295,35.3858062 C15.2656899,33.4305736 16.3494264,31.2035969 17.0231163,29.0892946 C18.5939302,29.7024496 20.691,29.8899457 21.4732403,31.4827054 C21.9769612,32.5039922 22.5563876,35.2382248 22.9518527,37.8527132 L3.24664341,37.8527132 C3.64196124,35.2382248 4.2213876,32.5039922 4.72525581,31.4827054 C5.50749612,29.8899457 7.60456589,29.7024496 9.17537984,29.0892946 C9.84921705,31.2035969 10.9329535,33.4305736 11.9066667,35.3858062 L12.3240775,30.8287519 L13.0992481,30.3122171 L13.0992481,30.3122171 Z M9.84303101,18.8186899 C9.60148062,19.1151783 9.43416279,19.4861938 9.32487597,19.891969 C9.30955814,20.0392558 9.30160465,20.1905194 9.30160465,20.3456124 C9.30160465,21.8205426 9.86733333,23.8364574 10.8366279,25.346 C11.4823333,26.3516744 12.2731163,27.0810388 13.0993953,27.0810388 C13.9256744,27.0810388 14.7164574,26.3516744 15.3621628,25.346 C16.3313101,23.8364574 16.897186,21.8205426 16.897186,20.3456124 C16.897186,19.9712093 16.8512326,19.6186047 16.7650698,19.2914806 C16.498186,19.031814 16.0654574,19.0486047 15.4076744,19.253186 C14.7098295,19.4702868 13.9370155,19.7364341 13.0993953,19.7364341 C12.8043798,19.7364341 12.5121628,19.723031 12.2295194,19.6919535 C12.4597287,19.7829767 12.7112946,19.8499922 12.9849535,19.8826899 C13.5736589,19.9529457 14.1502868,19.8555891 14.707031,19.6623488 C14.9367984,19.5822248 15.1879225,19.7034419 15.2680465,19.9333566 C15.3480233,20.163124 15.2268062,20.4142481 14.9970388,20.4943721 C14.3204031,20.7294419 13.5961938,20.8447674 12.8814109,20.7596357 C12.2237752,20.6811318 11.6658527,20.4488605 11.2021938,20.1507519 C10.6645969,19.8053643 10.2084496,19.3408217 9.84303101,18.8186899 L9.84303101,18.8186899 Z M7.92285271,21.5630853 C7.49660465,18.9876279 7.97189922,16.4503178 9.85820155,16.1878527 C12.1390853,13.360093 20.1663643,14.9650775 18.1258527,22.3786124 C17.4836822,25.2745659 15.6203566,28.5542016 13.0993953,28.5542016 C10.3376202,28.5542016 8.36530233,24.6185504 7.92285271,21.5630853 L7.92285271,21.5630853 Z" id="Shape"></path>
                                    </g>
                                </g>
                            </g>
                        </g>
                    </g>
                </g>
            </g>
        </g>
    </g>
</svg>