<?xml version="1.0" encoding="UTF-8"?>
<svg width="70px" height="70px" viewBox="0 0 70 70" version="1.1" xmlns="http://www.w3.org/2000/svg" xmlns:xlink="http://www.w3.org/1999/xlink">
    <!-- Generator: sketchtool 54.1 (76490) - https://sketchapp.com -->
    <title>6562B499-6E36-472B-870A-FD28E0532E3F</title>
    <desc>Created with sketchtool.</desc>
    <g id="Page-1" stroke="none" stroke-width="1" fill="none" fill-rule="evenodd">
        <g id="Partner-Opt-1" transform="translate(-648.000000, -1081.000000)">
            <g id="our-product" transform="translate(98.000000, 913.000000)">
                <g id="context" transform="translate(0.000000, 138.000000)">
                    <g id="data">
                        <g id="2" transform="translate(400.000000, 0.000000)">
                            <g id="Group-15" transform="translate(26.000000, 30.000000)">
                                <g id="icon-2" transform="translate(124.000000, 0.000000)">
                                    <g id="icon-copy-3">
                                        <circle id="Oval" fill="#FFD97C" cx="35" cy="35" r="35"></circle>
                                        <g id="iconfinder_experience_knowledge_expertise_expert_3130557-(2)" transform="translate(18.000000, 19.000000)" fill="#FFFFFF">
                                            <g id="Group">
                                                <path d="M6.22135256,24.4674288 C6.45724332,24.591126 6.69102554,24.653941 6.91605324,24.6537611 C7.24266219,24.6537611 7.53368884,24.5218804 7.73570101,24.2823123 C7.89795191,24.0895467 8.07206492,23.7437522 7.97680796,23.1922927 L7.71058375,21.6441079 L8.83936828,20.5474096 C9.2318985,20.1667415 9.37739135,19.704073 9.23958032,19.2782053 C9.10141218,18.8521604 8.7116325,18.5628893 8.1697508,18.4845689 L6.60727364,18.25829 L5.90871432,16.848272 C5.66657212,16.3590932 5.27121847,16.0785398 4.82356195,16.0785398 C4.37553672,16.0785398 3.97986208,16.359235 3.73839803,16.848272 L3.04019648,18.2584672 L1.478041,18.484569 C0.935801495,18.5628894 0.545700139,18.8523377 0.407531994,19.2785625 C0.269363849,19.7045719 0.41521382,20.1670987 0.807423073,20.5472297 L1.93652924,21.6442524 L1.67066212,23.1912214 C1.57504804,23.7430735 1.74848229,24.0890124 1.91105419,24.2821679 C2.25163318,24.6872771 2.8468966,24.7706352 3.42504487,24.4674288 L4.82356195,23.7350345 L6.22135256,24.4674288 Z" id="Path"></path>
                                                <path d="M32.8231888,18.484569 L31.2606762,18.2584672 L30.5628338,16.8486291 C30.3210113,16.359235 29.9253367,16.0785398 29.477323,16.0785398 C29.0296556,16.0785398 28.6342999,16.3590932 28.3921584,16.8480948 L27.6935991,18.25829 L26.1311219,18.484569 C25.5892388,18.5628894 25.1994605,18.8521605 25.061291,19.2782053 C24.9234814,19.704073 25.0689756,20.1667416 25.4611828,20.5472297 L26.5902903,21.6441079 L26.3240647,23.1921155 C26.2288077,23.7437522 26.4029221,24.0895467 26.5651731,24.2824895 C26.9064288,24.6865602 27.5010134,24.7706351 28.0798773,24.4674288 L29.477323,23.7350345 L30.8758292,24.4674288 C31.1116818,24.591126 31.3454654,24.6537611 31.5705285,24.6537611 C31.8971375,24.6537611 32.1881232,24.5218804 32.3898192,24.2821678 C32.5523917,24.0891896 32.7258247,23.7432506 32.6302106,23.1922927 L32.3643449,21.6442524 L33.493128,20.5475869 C33.8856596,20.1670987 34.0315082,19.7045719 33.8933414,19.2785625 C33.7551718,18.8523377 33.3650719,18.5628894 32.8231888,18.484569 Z" id="Path"></path>
                                                <path d="M17.1504425,12.1482301 C20.5057075,12.1482301 23.2245575,9.42870536 23.2245575,6.07340084 C23.2245575,2.71866674 20.5057075,0 17.1504425,0 C13.7965609,0 11.0763274,2.71866674 11.0763274,6.07340084 C11.0763274,9.42870536 13.7965609,12.1482301 17.1504425,12.1482301 Z" id="Path"></path>
                                                <path d="M21.1432019,27.2548402 L23.0211387,25.3387068 C23.5092844,24.8414863 23.6903637,24.259981 23.5183592,23.7432506 C23.3484265,23.2341693 22.8679708,22.8840133 22.2004551,22.7824702 L19.6299261,22.3920103 L18.4749571,19.9418556 C18.0468323,19.0349898 17.4061921,18.9369469 17.1507996,18.9369469 C16.8946806,18.9369469 16.2536833,19.0349898 15.8273154,19.9422128 L14.6716622,22.3918332 L12.1007747,22.7824702 C11.4329141,22.8840133 10.9520877,23.2344911 10.7825135,23.7439294 C10.6101519,24.2608724 10.7915883,24.8421651 11.2790538,25.3381698 L13.1580279,27.2550174 L12.7138375,29.9675759 C12.5934564,30.6973614 12.8084089,31.1336615 13.0097122,31.3711251 C13.4214661,31.8564821 14.1412841,31.9384826 14.8586732,31.5440238 L17.1507996,30.2836789 L19.4422009,31.5440238 C19.750622,31.7137766 20.052798,31.7999587 20.339632,31.7997788 C20.71855,31.7997788 21.0563055,31.6476413 21.2908033,31.3711251 C21.4924638,31.1336615 21.7077734,30.6975059 21.5877208,29.9686118 L21.1432019,27.2548402 Z" id="Path"></path>
                                            </g>
                                            <g id="Group" transform="translate(4.287611, 11.076327)">
                                                <path d="M2.90202837,5.13777313 L3.26733276,5.87506333 L4.08698053,5.99386466 C5.17178121,6.15054092 6.00361415,6.81140524 6.31139335,7.76118356 C6.61913574,8.71095917 6.33372465,9.73348323 5.54723309,10.4967494 L4.95929441,11.0679668 L5.097821,11.8736085 C5.11804376,11.9908751 5.13026299,12.1068905 5.13758773,12.22187 C5.13830194,12.2197628 5.13830194,12.2178328 5.13898206,12.2159382 C5.47920871,11.1942728 6.39860999,10.4754894 7.59856871,10.2931588 L9.41648063,10.0170025 L10.2469192,8.25611689 C10.7839065,7.11443166 11.7623036,6.43159583 12.8628319,6.43159583 C13.9622752,6.43159583 14.9406737,7.11339577 15.4797681,8.25543813 L16.310208,10.0171442 L18.1274398,10.2931588 C19.3266843,10.4753122 20.2457707,11.1937358 20.5863122,12.214687 C20.5870265,12.217154 20.5873481,12.2194057 20.5880651,12.22187 C20.5953898,12.1068905 20.6076077,11.9906952 20.6278318,11.8732868 L20.7663584,11.0679668 L20.1777382,10.4958934 C19.3919282,9.73348327 19.106517,8.71095917 19.4142595,7.76118356 C19.7220373,6.81140524 20.5538703,6.15054088 21.6390294,5.99368747 L22.4583201,5.87506333 L22.8236244,5.13741604 C22.96633,4.84903771 23.1474447,4.59953472 23.352251,4.38443916 C22.1973175,2.62498202 20.5196754,1.1845951 18.1043943,0.356586712 C16.7505807,1.68113675 14.9016212,2.50110619 12.8628319,2.50110619 C10.7881222,2.50110619 8.90807681,1.65408811 7.54833832,0.288198429 C5.09256807,1.08655213 3.41039543,2.51629134 2.26696146,4.27678437 C2.5175003,4.51285367 2.73488295,4.79983767 2.90202837,5.13777313 Z" id="Path"></path>
                                                <path d="M25.1900695,14.272133 L24.4555598,14.6570181 C23.2925819,15.2665739 21.946093,15.0301843 21.1847269,14.1269985 C20.9669803,13.8684548 20.8099824,13.5715019 20.7094752,13.2506475 C20.6585592,13.9637118 20.3340574,14.6722046 19.7534434,15.263608 L18.3828378,16.6619397 L18.3947013,16.7354024 L23.8735529,16.7354024 C24.8526274,16.7354024 25.699824,15.9595586 25.7186906,15.0001711 C25.7214765,14.8518909 25.7232266,14.7021823 25.7242652,14.5521493 L25.1900695,14.272133 Z" id="Path"></path>
                                                <path d="M7.34317079,16.6621196 L5.97081368,15.2623922 C5.39091395,14.6725263 5.0670923,13.9643906 5.01617764,13.2511818 C4.91531056,13.5716818 4.75866978,13.8685993 4.5409368,14.1269985 C4.06986539,14.6859599 3.37273584,15.0066372 2.62844262,15.0066372 C2.17031146,15.0068171 1.71321623,14.8892288 1.27044943,14.657198 L0.535594241,14.272133 L0.0048897698,14.5502575 C0.00731930863,14.7009665 0.010105934,14.8513539 0.0139646049,15.0001711 C0.0390832501,15.9595585 0.885564955,16.7354024 1.86606929,16.7354024 L7.33130872,16.7354024 L7.34317079,16.6621196 Z" id="Path"></path>
                                            </g>
                                        </g>
                                    </g>
                                </g>
                            </g>
                        </g>
                    </g>
                </g>
            </g>
        </g>
    </g>
</svg>