<?xml version="1.0" encoding="UTF-8"?>
<svg width="70px" height="70px" viewBox="0 0 70 70" version="1.1" xmlns="http://www.w3.org/2000/svg" xmlns:xlink="http://www.w3.org/1999/xlink">
    <!-- Generator: sketchtool 54.1 (76490) - https://sketchapp.com -->
    <title>62B78DD9-43A7-4208-A687-D5ED7E589F3D</title>
    <desc>Created with sketchtool.</desc>
    <g id="Page-1" stroke="none" stroke-width="1" fill="none" fill-rule="evenodd">
        <g id="Partner-Opt-1" transform="translate(-1048.000000, -1081.000000)">
            <g id="our-product" transform="translate(98.000000, 913.000000)">
                <g id="context" transform="translate(0.000000, 138.000000)">
                    <g id="data">
                        <g id="3" transform="translate(800.000000, 0.000000)">
                            <g id="Group-7" transform="translate(26.000000, 30.000000)">
                                <g id="icon-3-copy-2" transform="translate(124.000000, 0.000000)">
                                    <circle id="Oval-Copy-4" fill="#E25F54" cx="35" cy="35" r="35"></circle>
                                    <g id="iconfinder_1-149_2774501" transform="translate(20.000000, 21.000000)" fill="#FFFFFF">
                                        <path d="M20.4,28.25 L20.4,28.275 C20.4,28.6 20.125,28.875 19.8,28.875 L9,28.875 C8.675,28.875 8.4,28.6 8.4,28.275 C8.4,28.275 8.4,28.25 8.4,28.2 C8.4,27.975 8.55,27.775 8.775,27.7 C9.075,27.625 9.35,27.5 9.625,27.375 C9.925,27.225 10.25,27.05 10.55,26.8 C10.975,26.475 11.3,26.05 11.3,25.55 L11.3,24.5 L2.3,24.5 C0.725,24.5 0.05,23.825 0.05,22.225 L0.05,5.175 C0.05,3.575 0.725,2.875 2.375,2.875 L12.95,2.875 C12.375,3.65 11.925,4.5 11.575,5.425 L3.2,5.425 C2.25,5.425 2.25,5.425 2.25,6.325 L2.25,19.675 C2.25,20.45 2.275,20.475 3.05,20.475 C9.825,20.475 16.575,20.475 23.35,20.475 L24.775,24.5 L17.5,24.5 L17.5,25.55 C17.5,26.05 17.825,26.475 18.25,26.8 C18.55,27.025 18.875,27.225 19.175,27.375 C19.425,27.5 19.7,27.6 19.975,27.7 C20.225,27.75 20.4,27.975 20.4,28.25 Z" id="Path"></path>
                                        <path d="M14.475,16.325 L12.325,18.025 L11.475,18.65 L10.85,17.95 L7.75,14.15 L3.825,14.85 L3.6,13.925 L7.95,12.925 L8.325,12.825 L8.675,13.125 L11.6,15.7 L12.825,14.575 C13.325,15.225 13.85,15.8 14.475,16.325 Z" id="Path"></path>
                                        <path d="M23.45,7.275 L22.025,12.1 C22,12.175 21.9,12.15 21.875,12.075 L21.55,10.75 L17.975,13.55 C17.2,13.075 16.55,12.425 16.075,11.6 L19.75,8.275 L18.325,7.55 C18.25,7.5 18.25,7.4 18.325,7.4 L23.35,7.175 C23.4,7.15 23.45,7.225 23.45,7.275 Z" id="Path"></path>
                                        <path d="M28.5,4.675 C26.225,0.475 20.925,-1.1 16.725,1.175 C12.525,3.475 10.95,8.75 13.25,12.95 C15.275,16.65 19.6,18.325 23.5,17.1 L25.075,21.75 C25.15,21.95 25.25,22.15 25.375,22.325 C26.2,23.45 27.775,23.7 28.9,22.9 C30.025,22.075 30.275,20.5 29.475,19.375 L26.4,15.5 C29.55,12.925 30.525,8.375 28.5,4.675 Z M25.25,13.95 C24.9,14.25 24.5,14.525 24.075,14.75 C23.65,14.975 23.2,15.15 22.75,15.3 C19.775,16.175 16.45,14.9 14.9,12.05 C13.175,8.75 14.375,4.65 17.65,2.875 C20.925,1.1 25.025,2.325 26.8,5.575 C28.35,8.45 27.625,11.925 25.25,13.95 Z" id="Shape" fill-rule="nonzero"></path>
                                    </g>
                                </g>
                            </g>
                        </g>
                    </g>
                </g>
            </g>
        </g>
    </g>
</svg>