<?xml version="1.0" encoding="UTF-8"?>
<svg width="37px" height="36px" viewBox="0 0 37 36" version="1.1" xmlns="http://www.w3.org/2000/svg" xmlns:xlink="http://www.w3.org/1999/xlink">
    <!-- Generator: sketchtool 54.1 (76490) - https://sketchapp.com -->
    <title>634FCE01-F87D-4DAC-9DC2-FD724E5D6703</title>
    <desc>Created with sketchtool.</desc>
    <g id="Page-1" stroke="none" stroke-width="1" fill="none" fill-rule="evenodd">
        <g id="Partner-Opt-1" transform="translate(-142.000000, -1306.000000)" fill="#2A2A2A">
            <g id="our-product" transform="translate(98.000000, 913.000000)">
                <g id="context" transform="translate(0.000000, 138.000000)">
                    <g id="data">
                        <g id="1">
                            <g id="Group-6" transform="translate(25.000000, 30.000000)">
                                <g id="feature" transform="translate(0.000000, 223.000000)">
                                    <g id="1" transform="translate(0.000000, 2.000000)">
                                        <g id="iconfinder_user__employee__avatar__customer__call_3096114" transform="translate(19.000000, 0.000000)">
                                            <path d="M11.516566,33.0470085 C11.3344888,33.0470085 11.1524116,32.9803146 11.008298,32.8469267 L7.25655055,29.3743452 C6.94842001,29.0888352 6.92593677,28.6039926 7.2067926,28.2907559 C7.48764843,27.9775192 7.96458739,27.9542887 8.27308652,28.2397987 L11.516566,31.2417757 L14.759677,28.2397987 C15.0685447,27.9542887 15.545115,27.9775191 15.8259709,28.2907559 C16.1068268,28.6039927 16.0843435,29.0888352 15.7762129,29.3743452 L12.024834,32.8469267 C11.8807203,32.9803146 11.6986432,33.0470085 11.516566,33.0470085 Z" id="Path"></path>
                                            <path d="M11.9269642,27.0384615 C11.4169891,27.0384615 11.0165388,26.9850802 10.7583187,26.9361474 C10.5202542,26.891663 10.2818095,26.8219708 10.05021,26.7307777 C7.06451666,25.5482337 6.53324502,23.4211372 6.45528458,22.4209793 L5.92325232,22.1503658 C5.35813448,21.8626999 5.00712251,21.2977478 5.00712251,20.6771903 L5.00712251,19.3626757 C5.00712251,18.4811429 5.71561149,17.7575298 6.60664182,17.7048898 C6.48266575,15.947014 7.00481036,14.8297138 7.1417164,14.5709628 C7.45469893,13.8480911 8.07800183,13.2368011 8.99451203,12.7537745 C10.8587165,11.7714103 13.1750913,11.771781 15.0392957,12.7534037 C15.9561861,13.2371717 16.5794891,13.848091 16.8920913,14.5709628 C17.0293777,14.8304552 17.5515223,15.947014 17.4275462,17.7048898 C18.3185766,17.7575297 19.0270655,18.4811428 19.0270655,19.3626757 L19.0270655,20.6771902 C19.0270655,21.2977478 18.6760535,21.8626998 18.1113159,22.1503657 L17.5773822,22.4217207 C17.5104504,23.2558034 17.1248316,24.8765189 15.255303,26.0835294 C14.3502017,26.6684995 13.2800526,26.9976842 12.1616059,27.0347545 C12.0809836,27.0377201 12.0026428,27.0384615 11.9269642,27.0384615 Z M6.71084259,19.2203256 C6.63022014,19.2203256 6.56480944,19.2840866 6.56480944,19.3626757 L6.56480944,20.6771902 C6.56480944,20.7305715 6.59523301,20.7795043 6.64391073,20.8039708 L7.58894296,21.2844025 C7.87302308,21.4289768 8.03731037,21.7277638 8.00308386,22.0384133 C7.99623853,22.1199681 7.84336012,24.2174082 10.6362441,25.3235873 C10.7739108,25.3784514 10.9146198,25.4192288 11.054188,25.4459195 C11.2724771,25.4866968 11.633757,25.5274742 12.1095057,25.5178359 C12.938548,25.4896625 13.7291806,25.2479638 14.3946963,24.8179478 C16.1866447,23.6606116 16.0322451,22.0547243 16.0307239,22.0384133 C15.9964974,21.7277638 16.1607846,21.4289768 16.4452451,21.2844025 L17.3910379,20.8039708 C17.438955,20.7795043 17.4693786,20.7305715 17.4693786,20.6771902 L17.4693786,19.3626757 C17.4693786,19.2840866 17.4035876,19.2203256 17.3229651,19.2203256 L16.5475443,19.2203256 C16.3170858,19.2203256 16.0984163,19.1209771 15.9504816,18.9489707 C15.802547,18.7762228 15.740559,18.5493523 15.7808703,18.3284131 C16.1315019,16.4044621 15.5336787,15.3123697 15.5078187,15.2664025 C15.4933675,15.2404533 15.4762543,15.2063486 15.4648454,15.1789165 C15.2971355,14.7755912 14.9046714,14.4089654 14.2984817,14.0890483 C12.8913914,13.3483829 11.1424163,13.3487535 9.73532605,14.089419 C9.12951668,14.4085948 8.73705255,14.7755912 8.56896232,15.1796579 C8.55527173,15.2122799 8.53967959,15.243419 8.52180576,15.2738166 C8.50012899,15.3123698 7.90268603,16.4044621 8.2533177,18.3284131 C8.29362892,18.5493523 8.23164093,18.7762229 8.08370631,18.9489707 C7.93577169,19.1209771 7.71710227,19.2203256 7.48664366,19.2203256 L6.71084259,19.2203256 Z" id="Shape" fill-rule="nonzero"></path>
                                            <g id="Group" transform="translate(0.000000, 25.035613)">
                                                <path d="M0.742992372,10.6655133 C0.332677732,10.6655133 0,10.3370513 0,9.93113529 C0,6.01038884 3.22737312,2.82043454 7.19447352,2.82043454 L7.60805324,2.82043454 L7.75933637,2.74154627 C8.4319476,2.39013495 8.84407618,1.70452424 8.83500648,0.952934285 L8.83282973,0.786551777 C8.82775071,0.381353005 9.15607495,0.047870795 9.56638959,0.0428506607 C10.0075413,0.0414163471 10.3133727,0.362706708 10.3188145,0.76790548 L10.3209912,0.935005182 C10.3365912,2.24024731 9.62117079,3.43002561 8.45371498,4.03961675 L8.13953946,4.20384776 C8.03251661,4.25978672 7.91352178,4.28919048 7.79235012,4.28919048 L7.19447345,4.28919048 C4.04691399,4.28919048 1.48598474,6.82006919 1.48598474,9.93113529 C1.48598474,10.3370512 1.15330701,10.6655133 0.742992372,10.6655133 Z" id="Path"></path>
                                                <path d="M22.2270086,10.6655133 C21.8166939,10.6655133 21.4840162,10.3370513 21.4840162,9.93113529 C21.4840162,6.82006927 18.923087,4.28919048 15.7755274,4.28919048 L15.1776508,4.28919048 C15.0637349,4.28919048 14.9509075,4.26337247 14.8486009,4.2131709 L14.5899322,4.08694969 C13.2962258,3.45799513 12.5321916,2.1319552 12.6442935,0.709097887 C12.676219,0.305333429 13.0353803,0.0105782006 13.4427926,0.0342447056 C13.8520189,0.0658000456 14.1578502,0.419362867 14.1259248,0.823844445 C14.0613483,1.64284802 14.5014116,2.40662974 15.2469436,2.76951579 L15.3510641,2.82043454 L15.7755275,2.82043454 C19.7426279,2.82043454 22.970001,6.01038884 22.970001,9.93113529 C22.970001,10.3370512 22.6373232,10.6655133 22.2270086,10.6655133 Z" id="Path"></path>
                                                <path d="M22.2270086,10.6655133 L0.742992372,10.6655133 C0.332677732,10.6655133 0,10.3370513 0,9.93113529 C0,9.52521932 0.332677732,9.19675732 0.742992372,9.19675732 L22.2270086,9.19675732 C22.6373232,9.19675732 22.970001,9.52521932 22.970001,9.93113529 C22.970001,10.3370513 22.6373232,10.6655133 22.2270086,10.6655133 Z" id="Path"></path>
                                            </g>
                                            <g id="Group" transform="translate(17.024217, 0.000000)" fill-rule="nonzero">
                                                <path d="M11.7317467,11.2894221 C10.1445476,11.2894221 8.31059115,10.2738386 7.73086028,9.92687765 C7.06788593,9.53004109 4.87680045,8.1100312 4.52264435,6.50352976 C4.39220491,5.91369617 4.6226108,4.93967561 4.85933421,4.28478686 C5.04960487,3.75892421 5.47585574,3.34763091 6.02882983,3.15716383 C6.59146609,2.96380537 7.20241329,3.02416213 7.70410351,3.32450018 L9.47822873,4.3863452 C9.66255343,4.49693902 9.79001992,4.67873205 9.82829698,4.88618582 C9.86657403,5.09363959 9.81194557,5.3072374 9.67816156,5.4731281 C9.48640443,5.71130229 9.16234968,6.20391458 9.01964669,6.47750773 C9.27718099,6.81362616 10.1252232,7.30912975 10.549616,7.36370376 C10.7554948,7.14143189 11.128232,6.63725432 11.2932324,6.36185408 C11.3965434,6.18981927 11.5671181,6.06549164 11.7659361,6.01706166 C11.9647541,5.96790883 12.1750923,6.00007505 12.3493832,6.10488612 L14.1257382,7.16817679 C14.6326311,7.47140621 14.9518547,7.97196962 15.0020238,8.54156386 C15.0525644,9.11368797 14.8229018,9.66304278 14.3728671,10.0490368 C13.8321565,10.5123743 12.9826277,11.0993165 12.3687076,11.2272584 C12.1635719,11.270267 11.9498891,11.2894221 11.7317467,11.2894221 Z M6.69217574,4.52693665 C6.62416882,4.52693665 6.5680539,4.54211619 6.5372092,4.55259733 C6.46845908,4.57645092 6.34582371,4.63680762 6.29528303,4.77631485 C6.04183658,5.47674227 5.98423511,6.05428763 6.01099188,6.19415622 C6.15518134,6.84832218 7.1905213,7.86535139 8.52873348,8.66625292 C9.8989052,9.48630958 11.3144148,9.93338319 12.0491122,9.78014208 C12.198876,9.74869872 12.7563096,9.46137169 13.3665135,8.93803899 C13.4820881,8.83937196 13.4906354,8.72624826 13.4854327,8.66769857 C13.4806016,8.61059461 13.4534732,8.50397639 13.3282364,8.42880152 L13.3282364,8.42880152 L12.1862408,7.74536079 C11.8499226,8.20725251 11.3909689,8.72913964 10.9862722,8.81334992 C9.81529007,9.05766823 7.71004931,7.78041832 7.46737987,6.67917874 C7.38227835,6.29173903 7.68292083,5.70588104 7.9898809,5.23386961 L6.90623008,4.58512498 C6.83190572,4.54067053 6.75646637,4.52693665 6.69217574,4.52693665 Z" id="Shape"></path>
                                                <path d="M4.09416367,16.2852982 C3.97747425,16.2852982 3.8604132,16.2592761 3.75227104,16.2065091 C3.49510838,16.0807358 3.33308097,15.8248521 3.33308097,15.5451148 L3.33308097,13.613699 L1.08030617,13.613699 C0.660001259,13.613699 0.319223548,13.282279 0.319223548,12.8735156 L0.319223548,1.09310762 C0.319223548,0.684344267 0.660001259,0.352924296 1.08030617,0.352924296 L18.2659829,0.352924296 C18.6862878,0.352924296 19.0270655,0.684344267 19.0270655,1.09310762 L19.0270655,12.8735156 C19.0270655,13.282279 18.6862878,13.613699 18.2659829,13.613699 L8.04302304,13.613699 L4.54791458,16.1392855 C4.4145022,16.2361453 4.25470453,16.2852982 4.09416367,16.2852982 Z M1.84138887,12.1333323 L4.09416367,12.1333323 C4.51446858,12.1333323 4.85524629,12.4647523 4.85524629,12.8735156 L4.85524629,14.0730608 L7.33731214,12.2793451 C7.46849486,12.1846537 7.62754925,12.1333324 7.79106306,12.1333324 L17.5049003,12.1333324 L17.5049003,1.83329095 L1.84138887,1.83329095 L1.84138887,12.1333323 Z" id="Shape"></path>
                                            </g>
                                        </g>
                                    </g>
                                </g>
                            </g>
                        </g>
                    </g>
                </g>
            </g>
        </g>
    </g>
</svg>