<?xml version="1.0" encoding="UTF-8"?>
<svg width="64px" height="64px" viewBox="0 0 64 64" version="1.1" xmlns="http://www.w3.org/2000/svg" xmlns:xlink="http://www.w3.org/1999/xlink">
    <!-- Generator: sketchtool 54.1 (76490) - https://sketchapp.com -->
    <title>E3DA168D-5A79-4116-BD2C-936A2A894250</title>
    <desc>Created with sketchtool.</desc>
    <defs>
        <linearGradient x1="86.6983366%" y1="104.251614%" x2="15.3615869%" y2="4.52932337%" id="linearGradient-1">
            <stop stop-color="#8575C3" offset="0%"></stop>
            <stop stop-color="#CFA0A0" offset="100%"></stop>
        </linearGradient>
    </defs>
    <g id="Page-1" stroke="none" stroke-width="1" fill="none" fill-rule="evenodd">
        <g id="Partner-Opt-1" transform="translate(-1101.000000, -1791.000000)">
            <g id="Features" transform="translate(106.000000, 1601.000000)">
                <g id="Row-1" transform="translate(0.000000, 192.000000)">
                    <g id="4" transform="translate(899.000000, 0.000000)">
                        <g id="icon" transform="translate(98.000000, 0.000000)">
                            <circle id="Oval-Copy-8" stroke="url(#linearGradient-1)" stroke-width="2.5" fill="#171933" cx="30" cy="30" r="30"></circle>
                            <g id="iconfinder_experience_knowledge_expertise_expert_3130557" transform="translate(13.000000, 16.000000)" fill="#FFFFFF">
                                <g id="Group">
                                    <path d="M5.39312296,21.210155 C5.59761031,21.3173848 5.80026981,21.3718374 5.99534027,21.3716814 C6.27846877,21.3716814 6.53075193,21.2573576 6.70587084,21.0496825 C6.84652178,20.8825792 6.99745565,20.5828192 6.91487997,20.1047738 L6.68409737,18.7626941 L7.66261027,17.8119959 C8.00288415,17.482005 8.12900798,17.0809301 8.00954331,16.7117569 C7.88976907,16.3424301 7.55187957,16.0916688 7.08213692,16.0237749 L5.72766755,15.8276198 L5.12210529,14.6053132 C4.91219874,14.1812573 4.56947731,13.9380531 4.18141593,13.9380531 C3.79303493,13.9380531 3.45003524,14.1813802 3.24071656,14.6053132 L2.63546444,15.8277734 L1.28127393,16.023775 C0.811221111,16.0916688 0.473052752,16.3425837 0.353278509,16.7120665 C0.233504265,17.0813626 0.359937677,17.4823147 0.699933314,17.81184 L1.67872504,18.7628194 L1.44825199,20.1038452 C1.36536673,20.5822309 1.5157122,20.882116 1.6566414,21.0495573 C1.95188015,21.4007356 2.46789798,21.4729964 2.96907915,21.210155 L4.18141593,20.5752621 L5.39312296,21.210155 Z" id="Path"></path>
                                    <path d="M28.4535383,16.023775 L27.0990382,15.8277734 L26.4940974,14.6056227 C26.284468,14.1813802 25.9414683,13.9380531 25.5530973,13.9380531 C25.1650265,13.9380531 24.8223033,14.1812573 24.6123974,14.6051596 L24.0068351,15.8276198 L22.6523658,16.023775 C22.1826219,16.0916688 21.8447336,16.3424301 21.7249582,16.7117569 C21.6054947,17.0809302 21.7316197,17.4820051 22.0716136,17.81184 L23.0504065,18.7626942 L22.8196227,20.1046203 C22.737047,20.5828192 22.887982,20.8825792 23.028633,21.0498361 C23.3244584,21.4001141 23.8398878,21.4729964 24.3416893,21.210155 L25.5530973,20.5752621 L26.7654247,21.210155 C26.9698789,21.3173848 27.1725396,21.3716814 27.3676408,21.3716814 C27.6507693,21.3716814 27.903017,21.2573576 28.0778618,21.0495572 C28.2187916,20.8822696 28.3691359,20.5823844 28.2862507,20.1047739 L28.0557788,18.7628194 L29.0342905,17.8121496 C29.3745656,17.4823147 29.5009978,17.0813626 29.3812247,16.7120665 C29.2614493,16.3425837 28.9232821,16.0916688 28.4535383,16.023775 Z" id="Path"></path>
                                    <path d="M34.6451943,9.65287638 C34.5290439,9.30457983 34.2156844,9.06744644 33.7861768,9.00240247 L32.6754669,8.83331889 L32.1736726,7.77012362 C31.8993347,7.18680036 31.4595123,7.12389381 31.2828763,7.12389381 C31.106538,7.12389381 30.6670251,7.18680036 30.39208,7.76953521 L29.8902737,8.83331889 L28.7801854,9.00227842 C28.3506754,9.06729166 28.0376279,9.30430101 27.9211679,9.65228798 C27.8038075,10.0040535 27.914823,10.3880622 28.2263794,10.7059423 L29.0466801,11.542442 L28.8518885,12.7307391 C28.7771795,13.1888364 28.9229725,13.4748137 29.0581718,13.6340798 C29.3421983,13.9673861 29.8325081,14.0343796 30.2965215,13.7797168 L31.2831858,13.2370623 L32.2698384,13.7798716 C32.4610074,13.8848092 32.6521764,13.9380531 32.8382033,13.9380531 C33.1040789,13.9380531 33.342141,13.8299253 33.5087764,13.6333059 C33.6442924,13.4739157 33.7897995,13.187597 33.7141618,12.7299651 L33.5193702,11.542442 L34.339392,10.7062519 C34.6512391,10.3886506 34.7625523,10.0048274 34.6451943,9.65287638 Z" id="Path"></path>
                                    <path d="M14.8672566,10.5309735 C17.7758455,10.5309735 20.1327434,8.17349072 20.1327434,5.2648676 C20.1327434,2.35673897 17.7758455,0 14.8672566,0 C11.9598671,0 9.60176991,2.35673897 9.60176991,5.2648676 C9.60176991,8.17349072 11.9598671,10.5309735 14.8672566,10.5309735 Z" id="Path"></path>
                                    <path d="M18.3284722,23.6264868 L19.9564051,21.9654424 C20.3795654,21.5344154 20.5365382,21.0303241 20.3874321,20.5823844 C20.240122,20.1410756 19.823628,19.8375347 19.2449765,19.7495097 L17.0166542,19.4110306 L16.0154427,17.2870575 C15.6443128,16.50092 15.0889591,16.4159292 14.8675662,16.4159292 C14.6455436,16.4159292 14.0898802,16.50092 13.7202734,17.2873671 L12.7184687,19.4108771 L10.4898357,19.7495098 C9.9108853,19.8375347 9.49406986,20.1413545 9.34707051,20.5829729 C9.19765489,21.0310968 9.35493724,21.5350038 9.77750795,21.9649769 L11.40634,23.6266405 L11.0212832,25.9780843 C10.9169281,26.6107158 11.1032646,26.9889325 11.2777691,27.1947834 C11.6347075,27.6155263 12.2586983,27.6866103 12.8805836,27.3446646 L14.8675662,26.2521055 L16.8539203,27.3446646 C17.1212823,27.4918187 17.3832304,27.5665277 17.6318792,27.5663717 C17.960353,27.5663717 18.2531441,27.4344878 18.4564239,27.1947834 C18.631238,26.9889325 18.8178841,26.610841 18.7138137,25.9789823 L18.3284722,23.6264868 Z" id="Path"></path>
                                </g>
                                <g id="Group" transform="translate(3.716814, 9.601770)">
                                    <path d="M2.51569023,4.45379714 L2.83236277,5.09293415 L3.54289334,5.19591983 C4.48327783,5.33173826 5.2043714,5.90462374 5.47117689,6.72796098 C5.73795049,7.55129587 5.4905353,8.43769444 4.80874695,9.09934931 L4.29907874,9.59452234 L4.41916371,10.2929114 C4.43669428,10.3945667 4.4472868,10.4951373 4.45363642,10.5948099 C4.45425555,10.5929832 4.45425555,10.5913102 4.45484513,10.5896678 C4.74977845,9.70401358 5.54678265,9.08091958 6.58699455,8.92286215 L8.16289343,8.68346965 L8.88277829,7.15700535 C9.34827804,6.16730918 10.1964242,5.57537719 11.1504425,5.57537719 C12.1035203,5.57537719 12.9516676,6.16641119 13.418994,7.15641695 L14.13888,8.68359252 L15.7141893,8.92286215 C16.7537821,9.08076598 17.5505133,9.70354805 17.8457196,10.5885831 C17.8463387,10.5907217 17.8466176,10.5926737 17.8472391,10.5948099 C17.8535887,10.4951373 17.86418,10.3944107 17.8817118,10.2926325 L18.0017967,9.59452234 L17.4915378,9.09860731 C16.8103402,8.43769447 16.562925,7.55129587 16.8296986,6.72796098 C17.0965029,5.90462374 17.8175965,5.33173823 18.7582917,5.19576623 L19.4685127,5.09293415 L19.7851853,4.45348759 C19.9088929,4.20350019 20.0658964,3.98721276 20.2434374,3.80075221 C19.2422566,2.27552621 17.7879539,1.02689359 15.6942118,0.309115416 C14.5206273,1.45733217 12.917814,2.16814159 11.1504425,2.16814159 C9.35193257,2.16814159 7.72217185,1.43388443 6.54345117,0.249831456 C4.41461009,0.941902779 2.95637994,2.18130519 1.96516783,3.70742917 C2.1823532,3.91207129 2.37079636,4.16084999 2.51569023,4.45379714 Z" id="Path"></path>
                                    <path d="M21.8365928,12.3721276 L21.1998661,12.7057742 C20.1917118,13.2341817 19.0244769,13.0292619 18.3644692,12.2463145 C18.1757105,12.0221899 18.0396132,11.7647694 17.9524862,11.4866294 C17.9083485,12.1047656 17.6270466,12.718939 17.123728,13.2316107 L15.9355869,14.4437867 L15.9458711,14.5074696 L20.69534,14.5074696 C21.5440733,14.5074696 22.2784852,13.8349114 22.2948401,13.0032443 C22.2972552,12.8747042 22.2987723,12.7449259 22.2996727,12.6148663 L21.8365928,12.3721276 Z" id="Path"></path>
                                    <path d="M6.36559697,14.4439427 L5.17593755,13.2305567 C4.6732381,12.7192178 4.39252583,12.105354 4.34838928,11.4870925 C4.26095033,11.7649254 4.12516266,12.0223152 3.93641581,12.2463145 C3.52805668,12.7308631 2.92373386,13.0088496 2.27852611,13.0088496 C1.88138455,13.0090055 1.485141,12.9070714 1.10131839,12.7059302 L0.464292221,12.3721276 L0.00423880973,12.6132263 C0.0063449115,12.7438719 0.00876056195,12.8742387 0.0121055398,13.0032443 C0.0338802168,13.8349114 0.767672407,14.5074696 1.61764521,14.5074696 L6.35531406,14.5074696 L6.36559697,14.4439427 Z" id="Path"></path>
                                </g>
                            </g>
                        </g>
                    </g>
                </g>
            </g>
        </g>
    </g>
</svg>