<?xml version="1.0" encoding="UTF-8"?>
<svg width="30px" height="33px" viewBox="0 0 30 33" version="1.1" xmlns="http://www.w3.org/2000/svg" xmlns:xlink="http://www.w3.org/1999/xlink">
    <!-- Generator: sketchtool 54.1 (76490) - https://sketchapp.com -->
    <title>73EA4A67-767E-4833-867F-E75241BCFF55</title>
    <desc>Created with sketchtool.</desc>
    <g id="Page-1" stroke="none" stroke-width="1" fill="none" fill-rule="evenodd">
        <g id="Partner-Opt-1" transform="translate(-1188.000000, -1311.000000)">
            <g id="our-product" transform="translate(98.000000, 913.000000)">
                <g id="context" transform="translate(0.000000, 138.000000)">
                    <g id="data">
                        <g id="3" transform="translate(800.000000, 0.000000)">
                            <g id="Group-7" transform="translate(26.000000, 30.000000)">
                                <g id="feature" transform="translate(0.000000, 230.000000)">
                                    <g id="1">
                                        <g id="1-copy-2" transform="translate(244.000000, 0.000000)">
                                            <g id="iconfinder_seo3-99_417766" transform="translate(20.000000, 0.000000)">
                                                <path d="M17.2862544,7.00996053 C17.8211715,7.00996053 18.1871675,7.46100357 18.1871675,7.99661718 L18.1871675,9.12422477 C18.1871675,9.65983838 17.7367109,10.1108814 17.2017938,10.1108814 L17.0610261,10.1108814 L15.9348847,10.1108814 L15.9348847,11.238489 L15.9348847,14.8468333 L15.9348847,15.1569254 L16.0756524,15.4106371 L23.8741815,28.913738 C24.0994097,29.3365909 24.2964845,29.956775 23.9867956,30.4641985 C23.6771067,30.9716219 23.0014219,31.2535238 22.1849694,31.2535238 L2.64641644,31.2535238 C2.25226695,31.2535238 1.54842859,31.1971434 1.26689325,30.7179102 C1.01351143,30.3232475 1.12612557,29.646683 1.49212152,28.8855478 L8.75573343,15.3542567 L8.8965011,15.100545 L8.8965011,14.8186431 L8.8965011,11.238489 L8.8965011,10.1108814 L7.77035972,10.1108814 L7.62959205,10.1108814 C7.09467489,10.1108814 6.64421834,9.65983838 6.64421834,9.12422477 L6.64421834,7.99661718 C6.64421834,7.46100357 7.09467489,7.00996053 7.62959205,7.00996053 L17.3425615,7.00996053 L17.2862544,7.00996053 Z M17.2017938,5.88235294 L7.62959205,5.88235294 C6.47529713,5.88235294 5.51807696,6.81262921 5.51807696,7.99661718 L5.51807696,9.12422477 C5.51807696,10.2800226 6.4471436,11.238489 7.62959205,11.238489 L7.77035972,11.238489 L7.77035972,14.8186431 L0.506747813,28.3499342 C-0.675700637,30.6051494 0.281519537,32.3529412 2.64641644,32.3529412 L22.1849694,32.3529412 C24.5217128,32.3529412 26.0701572,30.5769592 24.8877087,28.321744 L17.0610261,14.8468333 L17.0610261,11.238489 L17.2017938,11.238489 C18.3560887,11.238489 19.3133089,10.3082127 19.3133089,9.12422477 L19.3133089,7.99661718 C19.3133089,6.81262921 18.3842422,5.88235294 17.2017938,5.88235294 L17.2017938,5.88235294 Z" id="Shape" fill="#2A2A2A" fill-rule="nonzero"></path>
                                                <path d="M22.7410131,29.3571338 L15.8210784,17.0588235 C12.6756536,18.4843095 12.1323529,19.9656969 10.2165033,20.524711 C10.1593137,20.524711 8.47222222,20.7762673 7.52859477,20.4688096 L2.58169935,29.3012324 C2.41013072,29.6086901 2.35294118,29.8322958 2.35294118,29.9720493 C2.43872549,30 2.55310458,30 2.7246732,30 L22.5694444,30 C22.7410131,30 22.8839869,29.9720493 22.9411765,29.9720493 C22.9411765,29.8602465 22.8839869,29.6366408 22.7410131,29.3571338 Z M3.15359477,29.4689366 L7.84313725,21.1116758 C8.1004902,21.1675772 8.41503268,21.1675772 8.75816993,21.1675772 C9.3872549,21.1675772 9.9877451,21.0837251 10.2165033,21.0557744 L10.245098,21.0557744 L10.3022876,21.0557744 L10.3880719,21.0278237 C11.4460784,20.7203659 12.1037582,20.1893025 12.875817,19.574387 C13.5620915,19.0153729 14.3341503,18.4004574 15.5923203,17.7575912 L22.1691176,29.4409859 L3.15359477,29.4409859 L3.15359477,29.4689366 Z" id="Shape" fill="#2A2A2A" fill-rule="nonzero"></path>
                                                <path d="M11.4705882,2.39048811 C11.9399249,2.39048811 12.3153942,2.76595745 12.3153942,3.23529412 C12.3153942,3.70463079 11.9399249,4.08010013 11.4705882,4.08010013 C11.0012516,4.08010013 10.6257822,3.70463079 10.6257822,3.23529412 C10.6257822,2.76595745 11.0325407,2.39048811 11.4705882,2.39048811 L11.4705882,2.39048811 Z M11.4705882,1.76470588 C10.6570713,1.76470588 10,2.42177722 10,3.23529412 C10,4.04881101 10.6570713,4.70588235 11.4705882,4.70588235 C12.2841051,4.70588235 12.9411765,4.04881101 12.9411765,3.23529412 C12.9411765,2.42177722 12.2841051,1.76470588 11.4705882,1.76470588 L11.4705882,1.76470588 Z" id="Shape" fill="#2A2A2A" fill-rule="nonzero"></path>
                                                <path d="M14.7058824,0.588235294 C15.0294118,0.588235294 15.2941176,0.852941176 15.2941176,1.17647059 C15.2941176,1.5 15.0294118,1.76470588 14.7058824,1.76470588 C14.3823529,1.76470588 14.1176471,1.5 14.1176471,1.17647059 C14.1176471,0.852941176 14.3823529,0.588235294 14.7058824,0.588235294 L14.7058824,0.588235294 Z M14.7058824,0 C14.0588235,0 13.5294118,0.529411765 13.5294118,1.17647059 C13.5294118,1.82352941 14.0588235,2.35294118 14.7058824,2.35294118 C15.3529412,2.35294118 15.8823529,1.82352941 15.8823529,1.17647059 C15.8823529,0.529411765 15.3529412,0 14.7058824,0 L14.7058824,0 Z" id="Shape" fill="#2A2A2A" fill-rule="nonzero"></path>
                                                <path d="M15,10.5882353 L9.70588235,10.5882353 C9.52941176,10.5882353 9.41176471,10.4705882 9.41176471,10.2941176 C9.41176471,10.1176471 9.52941176,10 9.70588235,10 L15,10 C15.1764706,10 15.2941176,10.1176471 15.2941176,10.2941176 C15.2941176,10.4705882 15.1764706,10.5882353 15,10.5882353 Z" id="Path" fill="#2C3E50"></path>
                                                <path d="M24.6340375,19.439659 C25.5964475,19.7153434 26.1463961,20.7353756 25.8714218,21.7002709 C25.5964475,22.6651663 24.5790427,23.216535 23.6166327,22.9408506 C22.6542227,22.6651663 22.1042742,21.645134 22.3792484,20.6802387 C22.6542227,19.7153434 23.6716276,19.1639746 24.6340375,19.439659 L24.6340375,19.439659 Z M24.7715247,18.9158587 C23.5341404,18.557469 22.2142639,19.2742484 21.8567973,20.5148281 C21.4993307,21.7554078 22.2142639,23.0786928 23.4516481,23.4370825 C24.6890324,23.7954722 26.0089089,23.0786928 26.3663755,21.8381131 C26.7513395,20.5975334 26.0364064,19.2742484 24.7715247,18.9158587 L24.7715247,18.9158587 Z" id="Shape" fill="#2A2A2A" fill-rule="nonzero"></path>
                                                <path d="M29.0282839,21.0371907 C29.0282839,20.6993629 29.0005206,20.3896874 28.9172306,20.0518595 L29.8889467,19.5169655 C29.6668402,18.6723959 29.2226271,17.884131 28.6395974,17.2084753 L27.6678813,17.7433694 C27.4457748,17.5181508 27.1959049,17.3210846 26.9182717,17.1240184 L27.2236682,16.0260779 C26.8627451,15.8008594 26.4462953,15.6319455 26.0298456,15.5193362 C25.6133958,15.4067269 25.1691827,15.32227 24.752733,15.2941176 L24.4473365,16.3920581 C24.1141766,16.3920581 23.8087801,16.4202104 23.4756203,16.5046674 L22.9481173,15.5193362 C22.1152178,15.7445547 21.3378449,16.1949919 20.6715252,16.7861905 L21.1990283,17.7715217 C20.9769217,17.9967403 20.7825785,18.2501111 20.5882353,18.5316343 L21.087975,19.7984887 L21.5044248,19.122833 C21.6432414,18.9257668 21.782058,18.7287005 21.9486379,18.5597866 L22.5316675,17.9685879 L22.1429811,17.2366276 L22.0596911,17.0958661 C22.1707444,17.0395614 22.2540344,16.9832568 22.3650876,16.9269521 L22.4483776,17.0677137 L22.837064,17.799674 L23.6422002,17.6307601 C23.8643068,17.5744555 24.1141766,17.5463032 24.3640465,17.5463032 L25.196946,17.5463032 L25.4190526,16.7298859 L25.4745792,16.5891243 C25.5301058,16.6172766 25.5856325,16.6172766 25.6411591,16.645429 C25.6966858,16.6735813 25.7522124,16.6735813 25.807739,16.7017336 L25.7522124,16.8424952 L25.5301058,17.6589124 L26.2241888,18.1093495 C26.418532,18.2501111 26.6128752,18.3908727 26.7794551,18.5597866 L27.3624848,19.1509853 L28.0843311,18.7568529 L28.2231477,18.6723959 C28.2786743,18.7850052 28.3342009,18.8694621 28.3897276,18.9820714 L28.250911,19.0665284 L27.5290647,19.4606608 L27.6956446,20.2770781 C27.7511713,20.5022966 27.7789346,20.7556675 27.7789346,21.0090384 L27.7789346,21.8536079 L28.5840708,22.0788265 L28.7228874,22.1351311 C28.6951241,22.1914358 28.6951241,22.2477404 28.6673607,22.304045 C28.6395974,22.3603497 28.6395974,22.4166543 28.6118341,22.472959 L28.4730175,22.4166543 L27.6678813,22.1914358 L27.2236682,22.8952437 C27.0848516,23.09231 26.9460351,23.2893762 26.7794551,23.4582901 L26.1964255,24.0494888 L26.5851119,24.7814491 L26.6684019,24.9222107 C26.5573486,24.9785153 26.4740587,25.03482 26.3630054,25.0911246 L26.2797154,24.950363 L25.891029,24.2184027 L25.0858928,24.3873166 C24.8637862,24.4436213 24.6139164,24.4717736 24.3640465,24.4717736 L23.7254902,24.4717736 L24.3640465,25.5978664 C24.6972063,25.5978664 25.0026028,25.569714 25.3079993,25.4852571 L25.8355023,26.4705882 C26.6684019,26.2453697 27.4457748,25.7949326 28.1120944,25.2037339 L27.5845914,24.2184027 C27.8066979,23.9931842 28.0010411,23.7398133 28.1953843,23.4582901 L29.2781537,23.7679656 C29.5002603,23.4019855 29.6668402,22.9797007 29.7778935,22.5574159 C29.8889467,22.1351311 29.9722367,21.684694 30,21.2624092 L29.0282839,21.0371907 Z" id="Path" fill="#2A2A2A"></path>
                                            </g>
                                        </g>
                                    </g>
                                </g>
                            </g>
                        </g>
                    </g>
                </g>
            </g>
        </g>
    </g>
</svg>