<?xml version="1.0" encoding="UTF-8"?>
<svg width="25px" height="38px" viewBox="0 0 25 38" version="1.1" xmlns="http://www.w3.org/2000/svg" xmlns:xlink="http://www.w3.org/1999/xlink">
    <!-- Generator: sketchtool 54.1 (76490) - https://sketchapp.com -->
    <title>FF0BF24F-DDC4-4826-93B2-D3450EAAC008</title>
    <desc>Created with sketchtool.</desc>
    <g id="Page-1" stroke="none" stroke-width="1" fill="none" fill-rule="evenodd">
        <g id="Partner-Opt-1" transform="translate(-548.000000, -1306.000000)" stroke="#314044" stroke-width="1.5">
            <g id="our-product" transform="translate(98.000000, 913.000000)">
                <g id="context" transform="translate(0.000000, 138.000000)">
                    <g id="data">
                        <g id="2" transform="translate(400.000000, 0.000000)">
                            <g id="Group-15" transform="translate(26.000000, 30.000000)">
                                <g id="feature" transform="translate(0.000000, 226.000000)">
                                    <g id="1">
                                        <g id="iconfinder_navigations-18_2118564" transform="translate(25.000000, 0.000000)">
                                            <path d="M11.5,6.13333333 L11.5,6.13333333 C12.8033333,6.13333333 13.8,5.13666667 13.8,3.83333333 L13.8,2.3 C13.8,0.996666667 12.8033333,0 11.5,0 L11.5,0 C10.1966667,0 9.2,0.996666667 9.2,2.3 L9.2,3.83333333 C9.2,5.13666667 10.1966667,6.13333333 11.5,6.13333333 Z" id="Path"></path>
                                            <path d="M16.33,29.44 C20.24,29.9 23,30.9733333 23,32.2 C23,33.8866667 17.8633333,35.2666667 11.5,35.2666667 C5.13666667,35.2666667 0,33.8866667 0,32.2 C0,30.9733333 2.76,29.9 6.67,29.44" id="Path"></path>
                                            <path d="M13.8,32.2 L14.5666667,23 L15.2566667,23 C16.1766667,23 16.9433333,22.31 17.02,21.39 L17.6333333,12.3433333 C17.6333333,10.1966667 15.87,8.43333333 13.7233333,8.43333333 L9.35333333,8.43333333 C7.20666667,8.43333333 5.44333333,10.1966667 5.44333333,12.3433333 L6.05666667,21.3133333 C6.13333333,22.2333333 6.9,22.9233333 7.82,22.9233333 L8.43333333,22.9233333 L9.2,32.1233333" id="Path"></path>
                                            <path d="M11.5,32.2 L11.5,23.7666667" id="Path"></path>
                                            <path d="M6.9,32.2 L16.1,32.2" id="Path"></path>
                                        </g>
                                    </g>
                                </g>
                            </g>
                        </g>
                    </g>
                </g>
            </g>
        </g>
    </g>
</svg>