<?xml version="1.0" encoding="UTF-8"?>
<svg width="42px" height="40px" viewBox="0 0 42 40" version="1.1" xmlns="http://www.w3.org/2000/svg" xmlns:xlink="http://www.w3.org/1999/xlink">
    <!-- Generator: sketchtool 54.1 (76490) - https://sketchapp.com -->
    <title>748326FC-A560-4D5F-A619-FCFA3FB6C544</title>
    <desc>Created with sketchtool.</desc>
    <g id="Page-1" stroke="none" stroke-width="1" fill="none" fill-rule="evenodd">
        <g id="Partner-Opt-1" transform="translate(-262.000000, -1304.000000)">
            <g id="our-product" transform="translate(98.000000, 913.000000)">
                <g id="context" transform="translate(0.000000, 138.000000)">
                    <g id="data">
                        <g id="1">
                            <g id="Group-6" transform="translate(25.000000, 30.000000)">
                                <g id="feature" transform="translate(0.000000, 223.000000)">
                                    <g id="1-copy" transform="translate(115.000000, 0.000000)">
                                        <g id="iconfinder_user-3_2676060" transform="translate(24.000000, 0.000000)">
                                            <path d="M17.5411765,7.65882353 L16.9235294,11.1794118 C16.8617647,11.4264706 16.9852941,11.6735294 17.1705882,11.7970588 C17.3558824,11.9205882 17.6029412,11.9823529 17.85,11.8588235 L21.0617647,10.1911765 L24.2735294,11.8588235 C24.4588235,11.9823529 24.7058824,11.9205882 24.9529412,11.7970588 C25.1382353,11.6735294 25.2617647,11.4264706 25.2,11.1794118 L24.5823529,7.65882353 L27.1764706,5.12647059 C27.3617647,4.94117647 27.4235294,4.69411765 27.3617647,4.50882353 C27.3,4.26176471 27.1147059,4.13823529 26.8676471,4.07647059 L23.2852941,3.58235294 L21.6794118,0.370588235 C21.4941176,-0.0617647059 20.7529412,-0.0617647059 20.5676471,0.370588235 L18.9617647,3.58235294 L15.3794118,4.07647059 C15.1323529,4.13823529 14.9470588,4.26176471 14.8852941,4.50882353 C14.8235294,4.75588235 14.8852941,5.00294118 15.0705882,5.12647059 L17.5411765,7.65882353 Z M19.3323529,4.75588235 C19.5176471,4.75588235 19.7029412,4.57058824 19.8264706,4.44705882 L21,1.97647059 L22.1735294,4.38529412 C22.2352941,4.57058824 22.4205882,4.69411765 22.6676471,4.69411765 L25.3235294,5.12647059 L23.4088235,6.97941176 C23.2852941,7.10294118 23.2235294,7.35 23.2235294,7.53529412 L23.6558824,10.1911765 L21.3088235,8.95588235 C21.2470588,8.89411765 21.1235294,8.89411765 21,8.89411765 C20.8764706,8.89411765 20.8147059,8.89411765 20.6911765,8.95588235 L18.3441176,10.1911765 L18.7764706,7.53529412 C18.8382353,7.35 18.7147059,7.10294118 18.5911765,6.97941176 L16.6764706,5.12647059 L19.3323529,4.75588235 Z" id="Shape" fill="#010101" fill-rule="nonzero"></path>
                                            <path d="M10.6852941,15.2558824 C10.8705882,15.1323529 10.9941176,14.8852941 10.9323529,14.6382353 L10.3147059,11.1176471 L12.9088235,8.58529412 C13.0941176,8.4 13.1558824,8.15294118 13.0941176,7.96764706 C13.0323529,7.72058824 12.8470588,7.59705882 12.6,7.53529412 L9.01764706,7.04117647 L7.41176471,3.76764706 C7.28823529,3.58235294 7.10294118,3.39705882 6.85588235,3.39705882 C6.60882353,3.39705882 6.42352941,3.52058824 6.3,3.76764706 L4.69411765,6.97941176 L1.11176471,7.47352941 C0.864705882,7.53529412 0.679411765,7.65882353 0.617647059,7.90588235 C0.555882353,8.15294118 0.617647059,8.4 0.802941176,8.52352941 L3.39705882,11.1176471 L2.77941176,14.6382353 C2.71764706,14.8852941 2.84117647,15.1323529 3.02647059,15.2558824 C3.21176471,15.3794118 3.45882353,15.4411765 3.70588235,15.3176471 L6.91764706,13.65 L10.1294118,15.3176471 C10.2529412,15.4411765 10.5,15.3794118 10.6852941,15.2558824 Z M7.16470588,12.3529412 C6.97941176,12.2294118 6.79411765,12.2294118 6.60882353,12.3529412 L4.26176471,13.5882353 L4.69411765,10.9323529 C4.75588235,10.7470588 4.63235294,10.5 4.50882353,10.3764706 L2.59411765,8.52352941 L5.25,8.15294118 C5.43529412,8.15294118 5.62058824,7.96764706 5.74411765,7.84411765 L6.91764706,5.43529412 L8.09117647,7.84411765 C8.15294118,8.02941176 8.33823529,8.15294118 8.58529412,8.15294118 L11.2411765,8.52352941 L9.32647059,10.3764706 C9.20294118,10.5 9.14117647,10.7470588 9.14117647,10.9323529 L9.57352941,13.5882353 L7.16470588,12.3529412 Z" id="Shape" fill="#010101" fill-rule="nonzero"></path>
                                            <path d="M41.3823529,7.96764706 C41.3205882,7.72058824 41.1352941,7.59705882 40.8882353,7.53529412 L37.3058824,7.04117647 L35.7,3.82941176 C35.5147059,3.39705882 34.7735294,3.39705882 34.5882353,3.82941176 L32.9823529,7.04117647 L29.4,7.53529412 C29.1529412,7.59705882 28.9676471,7.72058824 28.9058824,7.96764706 C28.8441176,8.21470588 28.9058824,8.46176471 29.0911765,8.58529412 L31.6852941,11.1176471 L31.0676471,14.6382353 C31.0058824,14.8852941 31.1294118,15.1323529 31.3147059,15.2558824 C31.5,15.3794118 31.7470588,15.4411765 31.9941176,15.3176471 L35.2058824,13.65 L38.4176471,15.3176471 C38.6029412,15.4411765 38.85,15.3794118 39.0970588,15.2558824 C39.2823529,15.1323529 39.4058824,14.8852941 39.3441176,14.6382353 L38.7264706,11.1176471 L41.3205882,8.58529412 C41.3823529,8.4 41.4441176,8.15294118 41.3823529,7.96764706 Z M37.4911765,10.4382353 C37.3676471,10.5617647 37.3058824,10.8088235 37.3058824,10.9941176 L37.7382353,13.65 L35.3911765,12.4147059 C35.3294118,12.3529412 35.2058824,12.3529412 35.0823529,12.3529412 C34.9588235,12.3529412 34.8970588,12.3529412 34.7735294,12.4147059 L32.4264706,13.65 L32.8588235,10.9941176 C32.9205882,10.8088235 32.7970588,10.5617647 32.6735294,10.4382353 L30.7588235,8.58529412 L33.4147059,8.21470588 C33.6,8.21470588 33.7852941,8.02941176 33.9088235,7.90588235 L35.0823529,5.49705882 L36.2558824,7.90588235 C36.3176471,8.09117647 36.5029412,8.21470588 36.75,8.21470588 L39.4058824,8.58529412 L37.4911765,10.4382353 Z" id="Shape" fill="#010101" fill-rule="nonzero"></path>
                                            <path d="M22.9901113,30.9810305 L19.4825603,34.0656455 L18.1371983,32.4751409 C17.9450037,32.2823524 17.6567118,32.2341553 17.4645173,32.4269438 C17.2723227,32.6197322 17.224274,32.9089148 17.4164686,33.1017033 L19.0501225,35.0777847 C19.1462198,35.174179 19.2423171,35.2223761 19.386463,35.2705732 C19.5306089,35.2705732 19.6267062,35.2223761 19.7228035,35.174179 L23.6147437,31.7521842 C23.8069382,31.5593958 23.8549869,31.2702132 23.6627923,31.0774247 C23.4705977,30.8364392 23.1823059,30.8364392 22.9901113,30.9810305 Z" id="Path" fill="#010101"></path>
                                            <path d="M11.7352941,38.4478662 L11.7352941,35.6745175 C11.7352941,31.3087809 15.5918823,27.7941176 20.3823527,27.7941176 C25.1728231,27.7941176 29.0294118,31.3087809 29.0294118,35.6745175 L29.0294118,38.4458266 C23.141997,39.135087 16.8862145,38.9945519 11.7352941,38.4477972 L11.7352941,38.4478662 Z" id="path11010" stroke="#000000" stroke-width="1.5" stroke-linecap="round" stroke-linejoin="round"></path>
                                            <path d="M25.3235294,21.4240871 C25.3235289,24.0461218 23.2495534,27.7941176 20.6911758,27.7941176 C18.1327986,27.7941176 16.058824,23.9590678 16.0588235,21.337033 C16.0588212,18.7149983 18.1327967,16.6764706 20.6911758,16.6764706 C23.2495553,16.6764706 25.3235318,18.8020623 25.3235294,21.4240871 Z" id="path11012" stroke="#000000" stroke-width="1.5" stroke-linecap="round" stroke-linejoin="round"></path>
                                        </g>
                                    </g>
                                </g>
                            </g>
                        </g>
                    </g>
                </g>
            </g>
        </g>
    </g>
</svg>