<?xml version="1.0" encoding="UTF-8"?>
<svg width="31px" height="30px" viewBox="0 0 31 30" version="1.1" xmlns="http://www.w3.org/2000/svg" xmlns:xlink="http://www.w3.org/1999/xlink">
    <!-- Generator: sketchtool 54.1 (76490) - https://sketchapp.com -->
    <title>25C317A9-7052-415A-95EC-8B0E56BF4E69</title>
    <desc>Created with sketchtool.</desc>
    <g id="Page-1" stroke="none" stroke-width="1" fill="none" fill-rule="evenodd">
        <g id="Partner-Opt-1" transform="translate(-950.000000, -1313.000000)" fill="#2A2A2A">
            <g id="our-product" transform="translate(98.000000, 913.000000)">
                <g id="context" transform="translate(0.000000, 138.000000)">
                    <g id="data">
                        <g id="3" transform="translate(800.000000, 0.000000)">
                            <g id="Group-7" transform="translate(26.000000, 30.000000)">
                                <g id="feature" transform="translate(0.000000, 230.000000)">
                                    <g id="1">
                                        <g id="1-copy" transform="translate(0.000000, 2.000000)">
                                            <g id="iconfinder_g-12_2995149" transform="translate(26.000000, 0.000000)">
                                                <path d="M11.7673469,9.81877551 C11.7673469,10.0971429 11.7167347,10.3628571 11.5902041,10.6159184 C11.4130612,10.9702041 11.4004082,11.4004082 11.5522449,11.7673469 C11.7040816,12.1342857 11.995102,12.4379592 12.3620408,12.5771429 C12.7416327,12.7289796 13.0706122,13.0073469 13.2604082,13.3616327 C13.3869388,13.6020408 13.4755102,13.8677551 13.4755102,14.1461224 C13.4881633,14.5510204 13.6779592,14.9179592 13.9816327,15.1836735 C14.2853061,15.4493878 14.6902041,15.5632653 15.082449,15.5126531 C15.4873469,15.4620408 15.904898,15.5632653 16.2465306,15.7783673 C16.4742857,15.9302041 16.6640816,16.1326531 16.8032653,16.3604082 C17.0057143,16.7020408 17.3473469,16.942449 17.7395918,17.0310204 C18.1318367,17.1195918 18.5493878,17.0310204 18.8783673,16.8032653 C19.1187755,16.6261224 19.4097959,16.524898 19.7008163,16.4869388 C20.0044898,16.524898 20.2828571,16.6261224 20.5232653,16.8032653 C20.7636735,16.9804082 21.0546939,17.0689796 21.3583673,17.0689796 C21.4595918,17.0689796 21.5608163,17.0563265 21.6620408,17.0310204 C22.0542857,16.942449 22.3959184,16.7020408 22.5983673,16.3604082 C22.737551,16.12 22.9273469,15.9302041 23.1677551,15.7783673 C23.5093878,15.5506122 23.9269388,15.4620408 24.3318367,15.5126531 C24.7240816,15.5632653 25.1289796,15.4367347 25.4453061,15.1836735 C25.7489796,14.9179592 25.9387755,14.5510204 25.9514286,14.1461224 C25.9640816,13.8677551 26.04,13.6020408 26.1665306,13.3616327 C26.3689796,12.9946939 26.6853061,12.7289796 27.064898,12.5771429 C27.4318367,12.4379592 27.7355102,12.1342857 27.8873469,11.7673469 C28.0391837,11.3877551 28.0138776,10.9702041 27.8367347,10.6159184 C27.7102041,10.3755102 27.6595918,10.1097959 27.6595918,9.83142857 C27.6595918,9.42653061 27.8114286,9.02163265 28.0897959,8.71795918 C28.3428571,8.41428571 28.4693878,8.00938776 28.4187755,7.61714286 C28.3681633,7.2122449 28.1530612,6.85795918 27.8367347,6.61755102 C27.6089796,6.45306122 27.4318367,6.25061224 27.3053061,5.99755102 C27.1155102,5.63061224 27.064898,5.21306122 27.1534694,4.82081633 C27.2420408,4.42857143 27.1534694,4.01102041 26.9257143,3.68204082 C26.6979592,3.35306122 26.3310204,3.13795918 25.9514286,3.08734694 C25.6730612,3.04938776 25.42,2.94816327 25.1922449,2.79632653 C24.8506122,2.55591837 24.6102041,2.22693878 24.4963265,1.82204082 C24.395102,1.44244898 24.1293878,1.11346939 23.762449,0.936326531 C23.4081633,0.759183673 22.9779592,0.733877551 22.6110204,0.873061224 C22.3579592,0.974285714 22.0795918,0.999591837 21.8012245,0.974285714 C21.3836735,0.923673469 21.0167347,0.746530612 20.7257143,0.442857143 C20.46,0.164489796 20.1057143,0.0126530612 19.7008163,0.0126530612 C19.3212245,0.0126530612 18.9542857,0.164489796 18.6885714,0.442857143 C18.4102041,0.733877551 18.0179592,0.923673469 17.6130612,0.974285714 C17.3346939,0.999591837 17.0689796,0.974285714 16.8032653,0.873061224 C16.4236735,0.733877551 16.0061224,0.759183673 15.6518367,0.936326531 C15.297551,1.11346939 15.0318367,1.44244898 14.9179592,1.82204082 C14.8040816,2.22693878 14.5636735,2.55591837 14.2220408,2.79632653 C13.9942857,2.94816327 13.7412245,3.04938776 13.4628571,3.08734694 C13.0706122,3.13795918 12.7163265,3.35306122 12.4759184,3.68204082 C12.2481633,4.01102041 12.1595918,4.42857143 12.2481633,4.82081633 C12.3367347,5.21306122 12.2861224,5.64326531 12.0963265,5.99755102 C11.9697959,6.23795918 11.7926531,6.45306122 11.564898,6.60489796 C11.2359184,6.83265306 11.0208163,7.19959184 10.9828571,7.6044898 C10.9322449,8.00938776 11.0587755,8.40163265 11.3244898,8.70530612 C11.6155102,9.02163265 11.7673469,9.41387755 11.7673469,9.81877551 Z M12.3240816,7.61714286 C12.7036735,7.33877551 13.02,6.9844898 13.222449,6.56693878 C13.5514286,5.94693878 13.64,5.22571429 13.4881633,4.54244898 C13.4755102,4.46653061 13.5008163,4.41591837 13.5261224,4.39061224 C13.5387755,4.36530612 13.5893878,4.31469388 13.6526531,4.31469388 C14.1208163,4.25142857 14.5510204,4.08693878 14.9432653,3.82122449 C15.5253061,3.42897959 15.9428571,2.83428571 16.1326531,2.16367347 C16.1453061,2.10040816 16.1959184,2.06244898 16.2338776,2.04979592 C16.2591837,2.03714286 16.322449,2.01183673 16.3857143,2.03714286 C16.8285714,2.20163265 17.2840816,2.26489796 17.7522449,2.21428571 C18.4481633,2.13836735 19.1061224,1.82204082 19.5869388,1.31591837 C19.6755102,1.22734694 19.7514286,1.22734694 19.8273469,1.31591837 C20.3081633,1.82204082 20.9661224,2.13836735 21.6620408,2.21428571 C22.1302041,2.26489796 22.5983673,2.20163265 23.0285714,2.03714286 C23.0918367,2.01183673 23.155102,2.03714286 23.1804082,2.04979592 C23.2057143,2.06244898 23.2563265,2.10040816 23.2816327,2.16367347 C23.4714286,2.83428571 23.9016327,3.42897959 24.4710204,3.82122449 C24.8632653,4.08693878 25.2934694,4.25142857 25.7616327,4.31469388 C25.824898,4.32734694 25.8755102,4.36530612 25.8881633,4.39061224 C25.9134694,4.41591837 25.9387755,4.47918367 25.9261224,4.54244898 C25.7742857,5.22571429 25.8628571,5.94693878 26.1918367,6.56693878 C26.4069388,6.9844898 26.7232653,7.33877551 27.0902041,7.61714286 C27.0902041,7.61714286 27.0902041,7.61714286 27.0902041,7.61714286 C27.1534694,7.65510204 27.1661224,7.71836735 27.1661224,7.75632653 C27.1661224,7.79428571 27.1661224,7.84489796 27.1281633,7.90816327 C26.6726531,8.43959184 26.4195918,9.12285714 26.4069388,9.81877551 C26.4069388,10.2995918 26.4955102,10.755102 26.7106122,11.1726531 C26.7359184,11.2359184 26.7232653,11.2991837 26.7106122,11.3244898 C26.6979592,11.3497959 26.6726531,11.4130612 26.5967347,11.4383673 C25.9387755,11.6914286 25.3946939,12.1595918 25.0530612,12.7795918 C24.8253061,13.1844898 24.6987755,13.64 24.6734694,14.1081633 C24.6734694,14.1840816 24.6355102,14.2220408 24.6102041,14.2473469 C24.584898,14.2726531 24.5342857,14.2979592 24.4583673,14.2979592 C23.762449,14.2093878 23.0665306,14.3738776 22.4718367,14.7534694 C22.0795918,15.0065306 21.7506122,15.3481633 21.5102041,15.7530612 C21.4722449,15.8163265 21.4216327,15.8289796 21.3836735,15.8416327 C21.3457143,15.8542857 21.282449,15.8542857 21.2318367,15.8163265 C20.7889796,15.5 20.2702041,15.3102041 19.7387755,15.2722449 C19.7261224,15.2722449 19.7008163,15.2722449 19.6881633,15.2722449 C19.6755102,15.2722449 19.6502041,15.2722449 19.637551,15.2722449 C19.0934694,15.3102041 18.5746939,15.5 18.1444898,15.8163265 C18.0812245,15.8542857 18.0179592,15.8542857 17.9926531,15.8416327 C17.9673469,15.8289796 17.9040816,15.8163265 17.8661224,15.7530612 C17.6257143,15.3481633 17.2967347,15.0065306 16.9044898,14.7534694 C16.3097959,14.3738776 15.6138776,14.2093878 14.9179592,14.2979592 C14.8420408,14.3106122 14.7914286,14.2726531 14.7661224,14.2473469 C14.7408163,14.2220408 14.7028571,14.1840816 14.7028571,14.1081633 C14.677551,13.64 14.5510204,13.1844898 14.3232653,12.7795918 C13.9816327,12.1722449 13.437551,11.6914286 12.7795918,11.4383673 C12.7163265,11.4130612 12.6783673,11.362449 12.6657143,11.3244898 C12.6530612,11.2991837 12.6404082,11.2359184 12.6657143,11.1726531 C12.8681633,10.755102 12.9693878,10.2995918 12.9693878,9.81877551 C12.9567347,9.12285714 12.7036735,8.43959184 12.2481633,7.90816327 C12.197551,7.85755102 12.197551,7.79428571 12.2102041,7.75632653 C12.2481633,7.71836735 12.2608163,7.65510204 12.3240816,7.61714286 Z" id="Shape" fill-rule="nonzero"></path>
                                                <path d="M16.0693878,8.43959184 L17.4106122,9.57836735 C17.2714286,10.0971429 17.144898,10.6159184 17.0183673,11.1346939 L16.9297959,11.4889796 C16.8791837,11.6914286 16.9171429,11.8938776 17.0183673,12.0583673 C17.1195918,12.2228571 17.2714286,12.3367347 17.4612245,12.3746939 C17.6763265,12.4253061 17.8914286,12.3873469 18.1191837,12.2481633 C18.3342857,12.1089796 18.5620408,11.9697959 18.7897959,11.8306122 C19.0808163,11.6534694 19.3718367,11.4636735 19.7008163,11.2738776 C20.1057143,11.5395918 20.5232653,11.8053061 20.9408163,12.0583673 L21.3077551,12.2861224 C21.4469388,12.3746939 21.6114286,12.4253061 21.7632653,12.4253061 C21.915102,12.4253061 22.0542857,12.3746939 22.1808163,12.2861224 C22.4338776,12.0836735 22.535102,11.7926531 22.4465306,11.4763265 L22.32,10.9322449 C22.2187755,10.5146939 22.117551,10.1097959 22.0163265,9.6922449 C22.0036735,9.64163265 22.0036735,9.62897959 22.0036735,9.62897959 C22.0036735,9.62897959 22.0163265,9.61632653 22.0416327,9.59102041 C22.3706122,9.32530612 22.6995918,9.05959184 23.0285714,8.78122449 L23.4840816,8.40163265 C23.56,8.33836735 23.7877551,8.14857143 23.775102,7.84489796 C23.775102,7.49061224 23.5726531,7.19959184 23.2436735,7.11102041 C23.142449,7.08571429 23.0412245,7.07306122 22.94,7.06040816 L22.6616327,7.03510204 C22.1681633,6.99714286 21.6746939,6.95918367 21.1432653,6.89591837 C20.9281633,6.33918367 20.7004082,5.76979592 20.4726531,5.21306122 L20.4220408,5.09918367 C20.3081633,4.7955102 20.0677551,4.63102041 19.7514286,4.63102041 C19.4477551,4.63102041 19.2073469,4.78285714 19.0681633,5.06122449 C19.0428571,5.09918367 19.0302041,5.13714286 19.017551,5.1877551 L18.3216327,6.89591837 C17.9167347,6.92122449 17.4991837,6.94653061 17.0942857,6.97183673 L16.3604082,7.02244898 C15.9934694,7.0477551 15.715102,7.33877551 15.6897959,7.70571429 C15.6518367,8.09795918 15.917551,8.31306122 16.0693878,8.43959184 Z M16.3857143,7.51591837 L17.1195918,7.46530612 C17.5371429,7.44 17.9673469,7.41469388 18.384898,7.38938776 C18.6506122,7.37673469 18.7391837,7.17428571 18.7771429,7.08571429 L19.4857143,5.36489796 C19.4983673,5.33959184 19.5110204,5.31428571 19.5236735,5.28897959 C19.5742857,5.17510204 19.637551,5.14979592 19.7640816,5.13714286 C19.8526531,5.13714286 19.9285714,5.16244898 19.9791837,5.28897959 L20.0297959,5.40285714 C20.257551,5.95959184 20.4726531,6.51632653 20.7004082,7.08571429 C20.7636735,7.23755102 20.864898,7.41469388 21.1685714,7.42734694 C21.6620408,7.45265306 22.1555102,7.49061224 22.6363265,7.52857143 L22.9146939,7.55387755 C22.9906122,7.55387755 23.0665306,7.56653061 23.1297959,7.57918367 C23.2689796,7.61714286 23.2942857,7.75632653 23.2942857,7.85755102 C23.2942857,7.88285714 23.2942857,7.93346939 23.1930612,8.02204082 L22.724898,8.40163265 C22.3959184,8.66734694 22.0795918,8.94571429 21.7506122,9.19877551 C21.5481633,9.36326531 21.484898,9.56571429 21.5481633,9.81877551 C21.6620408,10.2236735 21.7506122,10.6412245 21.8518367,11.0461224 L21.9783673,11.5902041 C22.0163265,11.7546939 21.9657143,11.8306122 21.8897959,11.8938776 C21.7885714,11.9697959 21.6620408,11.9191837 21.5861224,11.8685714 L21.2191837,11.6408163 C20.8016327,11.3877551 20.3967347,11.1220408 19.9791837,10.8563265 C19.8779592,10.7930612 19.7893878,10.7677551 19.6881633,10.7677551 C19.5869388,10.7677551 19.4983673,10.8057143 19.3971429,10.8689796 C19.1061224,11.0461224 18.815102,11.2359184 18.5240816,11.4130612 C18.2963265,11.5522449 18.0812245,11.6914286 17.8534694,11.8306122 C17.7142857,11.9191837 17.6257143,11.9191837 17.562449,11.9065306 C17.4865306,11.8938776 17.4485714,11.8432653 17.4359184,11.8179592 C17.3979592,11.7673469 17.3979592,11.6914286 17.4106122,11.6281633 L17.4991837,11.2738776 C17.6257143,10.755102 17.764898,10.2236735 17.9040816,9.70489796 C17.9546939,9.51510204 17.9040816,9.36326531 17.7522449,9.23673469 L16.3857143,8.08530612 C16.2085714,7.93346939 16.1579592,7.87020408 16.1706122,7.75632653 C16.1832653,7.61714286 16.2718367,7.52857143 16.3857143,7.51591837 Z" id="Shape" fill-rule="nonzero"></path>
                                                <path d="M0.113877551,18.4608163 C0.164489796,18.9416327 0.20244898,19.4477551 0.278367347,19.9285714 C0.657959184,22.5983673 1.60693878,25.1289796 3.07469388,27.4191837 C3.25183673,27.697551 3.60612245,27.8873469 3.93510204,27.9 C4.35265306,27.9126531 4.78285714,27.9 5.1877551,27.8873469 L5.36489796,27.8746939 C6.01020408,27.8493878 6.47836735,27.495102 6.61755102,26.9257143 C6.95918367,27.0269388 7.30081633,27.1281633 7.64244898,27.2293878 C8.09795918,27.3685714 8.55346939,27.495102 9.00897959,27.6342857 C9.55306122,27.7987755 10.1097959,27.9506122 10.6538776,28.115102 C12.0330612,28.52 13.4628571,28.9502041 14.88,29.3044898 C15.6771429,29.5069388 16.4236735,29.6081633 17.1322449,29.6081633 C18.2457143,29.6081633 19.2453061,29.355102 20.1563265,28.8489796 L23.4714286,27.0269388 C25.6477551,25.824898 27.8240816,24.6355102 30.0004082,23.4334694 C30.2914286,23.2689796 30.5065306,23.0285714 30.6330612,22.8514286 C30.9367347,22.4212245 31,21.8518367 30.784898,21.3710204 C30.582449,20.9028571 30.164898,20.5865306 29.6587755,20.5232653 C29.14,20.46 28.6338776,20.5865306 28.2922449,20.7130612 C27.1914286,21.1179592 26.1032653,21.5481633 25.0657143,21.9783673 C24.6102041,22.1681633 24.1420408,22.3579592 23.6865306,22.535102 C23.3702041,22.6616327 23.2183673,23.0285714 23.344898,23.344898 C23.4714286,23.6612245 23.8383673,23.8130612 24.1546939,23.6865306 C24.6228571,23.4967347 25.0910204,23.3069388 25.5465306,23.1297959 C26.5840816,22.7122449 27.6595918,22.2693878 28.735102,21.8771429 C29.0134694,21.7759184 29.3044898,21.7253061 29.5069388,21.7632653 C29.5322449,21.7632653 29.6081633,21.7759184 29.6587755,21.8771429 C29.6714286,21.915102 29.7093878,22.0289796 29.6334694,22.1428571 C29.5702041,22.2314286 29.4816327,22.32 29.4183673,22.3453061 C27.2420408,23.5473469 25.0657143,24.7367347 22.8893878,25.9387755 L19.5742857,27.7608163 C18.3469388,28.4314286 16.9677551,28.5453061 15.2089796,28.102449 C13.8171429,27.7481633 12.4,27.3306122 11.0334694,26.9257143 C10.4893878,26.7612245 9.93265306,26.5967347 9.38857143,26.444898 C8.93306122,26.3183673 8.49020408,26.1791837 8.03469388,26.0526531 C7.44,25.8755102 6.84530612,25.6983673 6.25061224,25.5338776 L5.44081633,25.3061224 L5.42816327,26.1032653 C5.42816327,26.2297959 5.42816327,26.3689796 5.42816327,26.5334694 C5.42816327,26.5967347 5.42816327,26.6220408 5.42816327,26.6346939 C5.4155102,26.6346939 5.37755102,26.6473469 5.32693878,26.6473469 L5.14979592,26.66 C4.78285714,26.6726531 4.42857143,26.6853061 4.07428571,26.6853061 C2.72040816,24.5595918 1.86,22.2440816 1.51836735,19.7767347 C1.45510204,19.3085714 1.4044898,18.8530612 1.36653061,18.3595918 C1.36653061,18.3469388 1.36653061,18.3342857 1.36653061,18.3216327 C2.60653061,18.2963265 3.85918367,18.2583673 5.09918367,18.2330612 C5.16244898,18.2330612 5.21306122,18.2330612 5.23836735,18.2457143 C5.23836735,18.2710204 5.25102041,18.3089796 5.25102041,18.3595918 L5.27632653,19.4604082 L5.89632653,19.4477551 C6.31387755,19.435102 6.74408163,19.422449 7.16163265,19.4097959 C9.05959184,19.3338776 10.8436735,19.2706122 12.5897959,19.84 C13.1591837,20.0171429 13.6146939,20.257551 14.0702041,20.4853061 C14.7408163,20.8269388 15.4240816,21.1812245 16.3983673,21.3330612 C17.6130612,21.5228571 18.8530612,21.6367347 20.1689796,21.6873469 C21.3836735,21.7253061 21.3836735,22.1808163 21.3710204,22.4338776 C21.3583673,22.8640816 21.08,23.155102 20.6497959,23.1677551 C19.8906122,23.2057143 19.1061224,23.2183673 18.3469388,23.2310204 C18.0179592,23.2310204 17.6889796,23.2436735 17.36,23.2563265 L14.2093878,23.3322449 C13.8677551,23.344898 13.6020408,23.6232653 13.6020408,23.964898 C13.6020408,24.3065306 13.9183673,24.597551 14.2346939,24.5722449 L17.3853061,24.4963265 C17.7142857,24.4836735 18.0432653,24.4836735 18.3722449,24.4710204 C19.1314286,24.4583673 19.9285714,24.4457143 20.7130612,24.4077551 C21.7885714,24.3571429 22.5857143,23.5346939 22.6110204,22.4465306 C22.6236735,21.7253061 22.3326531,20.5106122 20.2069388,20.4473469 C18.9416327,20.3967347 17.7522449,20.2955102 16.5755102,20.1057143 C15.8036735,19.9791837 15.2595918,19.7008163 14.6269388,19.3844898 C14.1587755,19.1440816 13.6273469,18.8657143 12.9693878,18.6506122 C11.0208163,18.0179592 9.03428571,18.0938776 7.11102041,18.1697959 C6.89591837,18.182449 6.69346939,18.182449 6.47836735,18.195102 C6.40244898,17.4232653 5.87102041,16.9804082 5.07387755,17.0057143 C3.70734694,17.0310204 2.35346939,17.0689796 0.986938776,17.1069388 C0.923673469,17.1069388 0.847755102,17.1195918 0.759183673,17.1195918 L2.84217094e-14,17.1828571 L0.0632653061,17.8155102 C0.0632653061,18.0179592 0.0885714286,18.2457143 0.113877551,18.4608163 Z" id="Path"></path>
                                                <path d="M5.89632653,20.3208163 C5.75714286,20.3208163 5.65591837,20.4346939 5.65591837,20.5738776 L5.76979592,24.3191837 C5.76979592,24.4583673 5.88367347,24.5595918 6.02285714,24.5595918 C6.02285714,24.5595918 6.02285714,24.5595918 6.0355102,24.5595918 C6.17469388,24.5595918 6.27591837,24.4457143 6.27591837,24.3065306 L6.16204082,20.5612245 C6.14938776,20.4220408 6.06081633,20.3208163 5.89632653,20.3208163 Z" id="Path"></path>
                                            </g>
                                        </g>
                                    </g>
                                </g>
                            </g>
                        </g>
                    </g>
                </g>
            </g>
        </g>
    </g>
</svg>